<svg width="1101" height="223" viewBox="0 0 1101 223" fill="none" xmlns="http://www.w3.org/2000/svg">
<path d="M509.803 195.354V8.52894H529.561L563.736 160.582L598.713 8.52894H617.669V195.354H602.718V44.2502L569.877 195.354H557.862L525.022 44.2502V195.354H509.803ZM681.821 197.567C673.634 197.567 666.782 196.303 661.262 193.774C655.922 191.035 651.918 186.293 649.248 179.549C646.756 172.804 645.51 163.533 645.51 151.73V78.7071C645.51 63.5334 648.269 52.68 653.786 46.1469C659.483 39.6139 668.828 36.3473 681.821 36.3473C694.816 36.3473 704.071 39.5085 709.589 45.8308C715.285 52.1532 718.133 63.1118 718.133 78.7071V151.73C718.133 163.533 716.887 172.804 714.395 179.549C711.904 186.081 707.987 190.719 702.647 193.458C697.307 196.197 690.365 197.567 681.821 197.567ZM681.821 185.239C688.942 185.239 694.015 183.132 697.04 178.916C700.066 174.701 701.579 167.01 701.579 155.84V77.7587C701.579 67.4323 700.156 60.0561 697.307 55.6305C694.46 50.9942 689.297 48.6759 681.821 48.6759C674.879 48.6759 669.806 50.8887 666.602 55.3144C663.578 59.5293 662.063 67.0107 662.063 77.7587V155.84C662.063 166.798 663.578 174.491 666.602 178.916C669.806 183.132 674.879 185.239 681.821 185.239ZM742.841 195.354V38.8762H756.458L758.594 55.6305C760.017 49.3081 763.31 44.4609 768.473 41.0891C773.633 37.7172 778.973 36.0312 784.493 36.0312C793.925 36.0312 800.78 38.0333 805.051 42.0374C809.501 45.8308 812.348 50.8887 813.595 57.2111C814.841 63.3228 815.464 70.0664 815.464 77.4426V195.354H798.911V80.2877C798.911 76.4942 798.821 72.8063 798.644 69.2235C798.464 65.6408 797.753 62.4796 796.508 59.74C795.44 56.7895 793.571 54.4715 790.901 52.7854C788.231 51.0994 784.313 50.2565 779.153 50.2565C774.702 50.2565 771.053 51.3103 768.206 53.4177C765.536 55.3144 763.488 57.6326 762.065 60.3722C760.818 62.9012 759.929 65.3247 759.395 67.6429V195.354H742.841ZM841.66 195.354V38.8762H857.947V195.354H841.66ZM914.815 195.671C910.899 195.671 907.339 195.145 904.135 194.09C900.931 193.035 898.173 191.351 895.858 189.032C893.545 186.503 891.765 183.342 890.518 179.549C889.273 175.545 888.649 170.591 888.649 164.691V51.2048H876.901V41.0891L889.717 38.8762L892.654 9.4773H905.203V38.8762H933.771V51.2048H905.203V161.214C905.203 167.114 906.094 172.068 907.873 176.071C909.654 180.075 913.569 182.078 919.621 182.078C922.113 182.078 924.783 181.971 927.63 181.761C930.48 181.339 932.526 181.129 933.771 181.129V193.774C932.349 193.774 929.856 194.09 926.296 194.722C922.737 195.354 918.909 195.671 914.815 195.671ZM983.757 197.567C975.568 197.567 968.716 196.303 963.199 193.774C957.859 191.035 953.854 186.293 951.184 179.549C948.691 172.804 947.446 163.533 947.446 151.73V78.7071C947.446 63.5334 950.203 52.68 955.723 46.1469C961.417 39.6139 970.762 36.3473 983.757 36.3473C996.75 36.3473 1006.01 39.5085 1011.52 45.8308C1017.22 52.1532 1020.07 63.1118 1020.07 78.7071V151.73C1020.07 163.533 1018.82 172.804 1016.33 179.549C1013.84 186.081 1009.92 190.719 1004.58 193.458C999.243 196.197 992.301 197.567 983.757 197.567ZM983.757 185.239C990.877 185.239 995.949 183.132 998.976 178.916C1002 174.701 1003.52 167.01 1003.52 155.84V77.7587C1003.52 67.4323 1002.09 60.0561 999.243 55.6305C996.394 50.9942 991.233 48.6759 983.757 48.6759C976.815 48.6759 971.743 50.8887 968.539 55.3144C965.512 59.5293 964 67.0107 964 77.7587V155.84C964 166.798 965.512 174.491 968.539 178.916C971.743 183.132 976.815 185.239 983.757 185.239ZM1044.78 195.354V38.8762H1058.66L1060.53 55.6305C1062.49 49.7297 1065.69 45.5147 1070.14 42.9858C1074.59 40.4568 1079.04 38.8762 1083.49 38.244C1088.47 36.9795 1093.28 36.8741 1097.91 37.9279V53.4177C1097.2 53.207 1095.95 52.9961 1094.17 52.7854C1092.39 52.5748 1090.43 52.4693 1088.3 52.4693C1086.34 52.4693 1084.47 52.8909 1082.69 53.7338C1076.64 54.5767 1071.56 57.2111 1067.47 61.6367C1063.38 65.8517 1061.33 71.647 1061.33 79.0232V195.354H1044.78Z" fill="#CE4200"/>
<path d="M509.803 195.354L507.667 195.354V197.883H509.803L509.803 195.354ZM509.803 8.52894L509.803 6H507.667V8.52894L509.803 8.52894ZM529.561 8.52894L531.625 7.8785L531.202 6H529.56L529.561 8.52894ZM563.736 160.582L561.672 161.232L563.712 170.31L565.797 161.246L563.736 160.582ZM598.713 8.52894L598.712 6H597.08L596.652 7.86434L598.713 8.52894ZM617.669 8.52894L619.805 8.52894V6H617.669L617.669 8.52894ZM617.669 195.354L617.669 197.883H619.805V195.354L617.669 195.354ZM602.718 195.354L600.581 195.354V197.883H602.717L602.718 195.354ZM602.718 44.2502L604.853 44.2502L600.649 43.62L602.718 44.2502ZM569.877 195.354L569.877 197.883H571.533L571.945 195.984L569.877 195.354ZM557.862 195.354L555.793 195.984L556.206 197.883H557.862L557.862 195.354ZM525.022 44.2502L527.09 43.62L522.885 44.2502L525.022 44.2502ZM525.022 195.354L525.021 197.883H527.157V195.354L525.022 195.354ZM509.803 195.354L511.939 195.354V8.52894L509.803 8.52894L507.667 8.52894V195.354L509.803 195.354ZM509.803 8.52894L509.803 11.0579H529.56L529.561 8.52894L529.56 6H509.803L509.803 8.52894ZM529.561 8.52894L527.496 9.17938L561.672 161.232L563.736 160.582L565.8 159.931L531.625 7.8785L529.561 8.52894ZM563.736 160.582L565.797 161.246L600.773 9.19354L598.713 8.52894L596.652 7.86434L561.675 159.917L563.736 160.582ZM598.713 8.52894L598.712 11.0579H617.669L617.669 8.52894L617.669 6H598.712L598.713 8.52894ZM617.669 8.52894L615.533 8.52894V195.354L617.669 195.354L619.805 195.354V8.52894L617.669 8.52894ZM617.669 195.354L617.669 192.826H602.717L602.718 195.354L602.717 197.883H617.669L617.669 195.354ZM602.718 195.354L604.853 195.354V44.2502L602.718 44.2502L600.581 44.2502V195.354L602.718 195.354ZM602.718 44.2502L600.649 43.62L567.808 194.725L569.877 195.354L571.945 195.984L604.786 44.8804L602.718 44.2502ZM569.877 195.354L569.877 192.826H557.862L557.862 195.354L557.862 197.883H569.877L569.877 195.354ZM557.862 195.354L559.931 194.725L527.09 43.62L525.022 44.2502L522.953 44.8804L555.793 195.984L557.862 195.354ZM525.022 44.2502L522.885 44.2502V195.354L525.022 195.354L527.157 195.354V44.2502L525.022 44.2502ZM525.022 195.354L525.021 192.826H509.803L509.803 195.354L509.803 197.883H525.021L525.022 195.354ZM661.262 193.774L660.414 196.095L660.453 196.113L660.491 196.133L661.262 193.774ZM649.248 179.549L647.291 180.563L647.302 180.593L647.314 180.621L649.248 179.549ZM653.786 46.1469L652.3 44.3307L652.288 44.3446L652.276 44.3587L653.786 46.1469ZM709.589 45.8308L708.104 47.6481L708.115 47.662L708.127 47.6757L709.589 45.8308ZM714.395 179.549L716.342 180.591L716.351 180.563L714.395 179.549ZM697.307 55.6305L695.579 57.118L695.593 57.1408L695.608 57.163L697.307 55.6305ZM666.602 55.3144L664.981 53.6685L664.974 53.6764L666.602 55.3144ZM666.602 178.916L664.942 180.507L664.977 180.56L665.015 180.608L666.602 178.916ZM681.821 197.567L681.821 195.038C673.802 195.038 667.23 193.797 662.033 191.414L661.262 193.774L660.491 196.133C666.331 198.809 673.463 200.096 681.821 200.096L681.821 197.567ZM661.262 193.774L662.112 191.452C657.289 188.979 653.649 184.71 651.182 178.476L649.248 179.549L647.314 180.621C650.185 187.876 654.555 193.089 660.414 196.095L661.262 193.774ZM649.248 179.549L651.204 178.535C648.88 172.245 647.646 163.368 647.646 151.73L645.51 151.73L643.374 151.73C643.374 163.695 644.631 173.363 647.291 180.563L649.248 179.549ZM645.51 151.73L647.646 151.73V78.7071H645.51H643.374V151.73L645.51 151.73ZM645.51 78.7071H647.646C647.646 63.7941 650.371 53.7669 655.296 47.9352L653.786 46.1469L652.276 44.3587C646.166 51.5933 643.374 63.2727 643.374 78.7071H645.51ZM653.786 46.1469L655.273 47.9632C660.382 42.1042 669.046 38.8762 681.821 38.8762L681.821 36.3473L681.821 33.8184C668.608 33.8184 658.584 37.1234 652.3 44.3307L653.786 46.1469ZM681.821 36.3473L681.821 38.8762C694.619 38.8762 703.183 42.0104 708.104 47.6481L709.589 45.8308L711.075 44.0135C704.96 37.0066 695.01 33.8184 681.821 33.8184L681.821 36.3473ZM709.589 45.8308L708.127 47.6757C713.175 53.2786 715.996 63.3549 715.996 78.7071H718.133H720.268C720.268 62.8691 717.393 51.0278 711.049 43.986L709.589 45.8308ZM718.133 78.7071H715.996V151.73L718.133 151.73L720.268 151.73V78.7071H718.133ZM718.133 151.73L715.996 151.73C715.996 163.368 714.762 172.245 712.438 178.535L714.395 179.549L716.351 180.563C719.012 173.363 720.268 163.695 720.268 151.73L718.133 151.73ZM714.395 179.549L712.448 178.507C710.165 184.493 706.628 188.658 701.798 191.136L702.647 193.458L703.497 195.779C709.345 192.777 713.64 187.672 716.342 180.591L714.395 179.549ZM702.647 193.458L701.798 191.136C696.822 193.69 690.198 195.038 681.821 195.038L681.821 197.567L681.821 200.096C690.531 200.096 697.794 198.705 703.497 195.779L702.647 193.458ZM681.821 185.239L681.821 187.768C689.237 187.768 695.062 185.578 698.667 180.555L697.04 178.916L695.412 177.278C692.966 180.687 688.645 182.71 681.821 182.71L681.821 185.239ZM697.04 178.916L698.667 180.555C702.224 175.601 703.714 167.094 703.714 155.84L701.579 155.84L699.443 155.84C699.443 166.927 697.909 173.8 695.412 177.278L697.04 178.916ZM701.579 155.84L703.714 155.84V77.7587L701.579 77.7587L699.443 77.7587V155.84L701.579 155.84ZM701.579 77.7587L703.714 77.7587C703.714 67.2902 702.294 59.2064 699.007 54.0979L697.307 55.6305L695.608 57.163C698.016 60.9058 699.443 67.5742 699.443 77.7587L701.579 77.7587ZM697.307 55.6305L699.035 54.143C695.602 48.5563 689.598 46.1469 681.821 46.1469L681.821 48.6759L681.821 51.2048C688.995 51.2048 693.314 53.4318 695.579 57.118L697.307 55.6305ZM681.821 48.6759L681.821 46.1469C674.52 46.1469 668.736 48.4812 664.981 53.6685L666.602 55.3144L668.223 56.9602C670.876 53.2963 675.238 51.2048 681.821 51.2048L681.821 48.6759ZM666.602 55.3144L664.974 53.6764C661.427 58.6177 659.927 66.8979 659.927 77.7587L662.063 77.7587L664.199 77.7587C664.199 67.1235 665.726 60.4408 668.23 56.9521L666.602 55.3144ZM662.063 77.7587L659.927 77.7587V155.84L662.063 155.84L664.199 155.84V77.7587L662.063 77.7587ZM662.063 155.84L659.927 155.84C659.927 166.917 661.431 175.371 664.942 180.507L666.602 178.916L668.262 177.326C665.722 173.611 664.199 166.679 664.199 155.84L662.063 155.84ZM666.602 178.916L665.015 180.608C668.779 185.56 674.55 187.768 681.821 187.768L681.821 185.239L681.821 182.71C675.208 182.71 670.835 180.704 668.189 177.225L666.602 178.916ZM742.841 195.354L740.705 195.354V197.883H742.841L742.841 195.354ZM742.841 38.8762L742.841 36.3473H740.705V38.8762H742.841ZM756.458 38.8762L758.568 38.4987L758.295 36.3473H756.458L756.458 38.8762ZM758.594 55.6305L756.481 56.0078L760.657 56.2822L758.594 55.6305ZM805.051 42.0374L803.725 44.0201L803.763 44.056L803.802 44.0897L805.051 42.0374ZM813.595 57.2111L811.515 57.7856L811.517 57.8044L813.595 57.2111ZM815.464 195.354L815.464 197.883H817.6V195.354L815.464 195.354ZM798.911 195.354L796.774 195.354V197.883H798.91L798.911 195.354ZM796.508 59.74L794.542 60.7362L794.581 60.8398L794.626 60.939L796.508 59.74ZM768.206 53.4177L769.304 55.5862L769.321 55.5743L769.338 55.5622L768.206 53.4177ZM762.065 60.3722L760.245 59.0468L760.232 59.0721L760.219 59.0979L762.065 60.3722ZM759.395 67.6429L757.334 66.9776L757.259 67.3043V67.6429H759.395ZM759.395 195.354L759.395 197.883H761.531V195.354L759.395 195.354ZM742.841 195.354L744.977 195.354V38.8762H742.841H740.705V195.354L742.841 195.354ZM742.841 38.8762L742.841 41.4052H756.458L756.458 38.8762L756.458 36.3473H742.841L742.841 38.8762ZM756.458 38.8762L754.345 39.2536L756.481 56.0078L758.594 55.6305L760.704 55.2529L758.568 38.4987L756.458 38.8762ZM758.594 55.6305L760.657 56.2822C761.92 50.6732 764.814 46.3672 769.504 43.3034L768.473 41.0891L767.439 38.8747C761.806 42.5546 758.113 47.943 756.528 54.9788L758.594 55.6305ZM768.473 41.0891L769.504 43.3034C774.372 40.1233 779.36 38.5601 784.493 38.5601L784.493 36.0312L784.493 33.5022C778.589 33.5022 772.896 35.3109 767.439 38.8747L768.473 41.0891ZM784.493 36.0312L784.493 38.5601C793.76 38.5601 800.019 40.5479 803.725 44.0201L805.051 42.0374L806.376 40.0547C801.538 35.5186 794.089 33.5022 784.493 33.5022L784.493 36.0312ZM805.051 42.0374L803.802 44.0897C807.832 47.526 810.385 52.0588 811.515 57.7856L813.595 57.2111L815.673 56.6365C814.311 49.7186 811.166 44.1357 806.299 39.9852L805.051 42.0374ZM813.595 57.2111L811.517 57.8044C812.717 63.6917 813.328 70.2328 813.328 77.4426L815.464 77.4426L817.6 77.4426C817.6 69.9 816.961 62.9535 815.671 56.6178L813.595 57.2111ZM815.464 77.4426L813.328 77.4426V195.354L815.464 195.354L817.6 195.354V77.4426L815.464 77.4426ZM815.464 195.354L815.464 192.826H798.91L798.911 195.354L798.91 197.883H815.464L815.464 195.354ZM798.911 195.354L801.046 195.354V80.2877H798.911H796.774V195.354L798.911 195.354ZM798.911 80.2877H801.046C801.046 76.4475 800.954 72.7099 800.775 69.0751L798.644 69.2235L796.509 69.372C796.685 72.9026 796.774 76.541 796.774 80.2877H798.911ZM798.644 69.2235L800.775 69.0751C800.581 65.181 799.801 61.6511 798.387 58.541L796.508 59.74L794.626 60.939C795.704 63.3081 796.347 66.1008 796.509 69.372L798.644 69.2235ZM796.508 59.74L798.47 58.7439C797.189 55.2031 794.95 52.4774 791.904 50.5539L790.901 52.7854L789.894 55.0167C792.188 56.4653 793.688 58.3762 794.542 60.7362L796.508 59.74ZM790.901 52.7854L791.904 50.5539C788.779 48.58 784.448 47.7275 779.153 47.7275L779.153 50.2565L779.153 52.7854C784.179 52.7854 787.679 53.6187 789.894 55.0167L790.901 52.7854ZM779.153 50.2565L779.153 47.7275C774.428 47.7275 770.355 48.8451 767.074 51.2731L768.206 53.4177L769.338 55.5622C771.751 53.7752 774.975 52.7854 779.153 52.7854L779.153 50.2565ZM768.206 53.4177L767.106 51.2491C764.186 53.3238 761.873 55.9145 760.245 59.0468L762.065 60.3722L763.883 61.6977C765.102 59.3508 766.884 57.3049 769.304 55.5862L768.206 53.4177ZM762.065 60.3722L760.219 59.0979C758.899 61.7778 757.925 64.4057 757.334 66.9776L759.395 67.6429L761.454 68.3083C761.93 66.2439 762.738 64.0245 763.908 61.6466L762.065 60.3722ZM759.395 67.6429H757.259V195.354L759.395 195.354L761.531 195.354V67.6429H759.395ZM759.395 195.354L759.395 192.826H742.841L742.841 195.354L742.841 197.883H759.395L759.395 195.354ZM841.66 195.354L839.524 195.354V197.883H841.66L841.66 195.354ZM841.66 38.8762L841.66 36.3473H839.524V38.8762H841.66ZM857.947 38.8762H860.082V36.3473H857.946L857.947 38.8762ZM857.947 195.354L857.946 197.883H860.082V195.354L857.947 195.354ZM841.66 195.354L843.796 195.354V38.8762H841.66H839.524V195.354L841.66 195.354ZM841.66 38.8762L841.66 41.4052H857.946L857.947 38.8762L857.946 36.3473H841.66L841.66 38.8762ZM857.947 38.8762H855.81V195.354L857.947 195.354L860.082 195.354V38.8762H857.947ZM857.947 195.354L857.946 192.826H841.66L841.66 195.354L841.66 197.883H857.946L857.947 195.354ZM895.858 189.032L894.409 190.891L894.478 190.962L895.858 189.032ZM890.518 179.549L888.514 180.424L888.521 180.444L888.527 180.464L890.518 179.549ZM888.649 51.2048H890.785V48.6759H888.649L888.649 51.2048ZM876.901 51.2048H874.765V53.7338H876.901L876.901 51.2048ZM876.901 41.0891L876.593 38.5867L874.765 38.9023V41.0891H876.901ZM889.717 38.8762L890.026 41.3786L891.646 41.0989L891.838 39.1734L889.717 38.8762ZM892.654 9.4773L892.654 6.94835H890.757L890.533 9.18014L892.654 9.4773ZM905.203 9.4773L907.338 9.47729V6.94835H905.202L905.203 9.4773ZM905.203 38.8762H903.067V41.4052H905.202L905.203 38.8762ZM933.771 38.8762H935.907V36.3473H933.771L933.771 38.8762ZM933.771 51.2048L933.771 53.7338H935.907V51.2048H933.771ZM905.203 51.2048L905.202 48.6759H903.067V51.2048H905.203ZM927.63 181.761L927.765 184.285L927.831 184.28L927.895 184.27L927.63 181.761ZM933.771 181.129L935.907 181.129V178.6H933.771L933.771 181.129ZM933.771 193.774L933.771 196.303H935.907V193.774L933.771 193.774ZM914.815 195.671L914.814 193.142C911.059 193.142 907.695 192.636 904.707 191.652L904.135 194.09L903.564 196.528C906.984 197.651 910.739 198.2 914.814 198.2L914.815 195.671ZM904.135 194.09L904.707 191.652C901.77 190.689 899.294 189.161 897.238 187.103L895.858 189.032L894.478 190.962C897.05 193.539 900.091 195.385 903.564 196.528L904.135 194.09ZM895.858 189.032L897.308 187.173C895.253 184.93 893.649 182.1 892.508 178.633L890.518 179.549L888.527 180.464C889.881 184.584 891.836 188.076 894.409 190.891L895.858 189.032ZM890.518 179.549L892.523 178.674C891.389 175.034 890.785 170.399 890.785 164.691L888.649 164.691L886.513 164.691C886.513 170.783 887.154 176.054 888.514 180.424L890.518 179.549ZM888.649 164.691L890.785 164.691V51.2048H888.649H886.513V164.691L888.649 164.691ZM888.649 51.2048L888.649 48.6759H876.901L876.901 51.2048L876.901 53.7338H888.649L888.649 51.2048ZM876.901 51.2048H879.037V41.0891H876.901H874.765V51.2048H876.901ZM876.901 41.0891L877.211 43.5914L890.026 41.3786L889.717 38.8762L889.409 36.3739L876.593 38.5867L876.901 41.0891ZM889.717 38.8762L891.838 39.1734L894.775 9.77445L892.654 9.4773L890.533 9.18014L887.596 38.5791L889.717 38.8762ZM892.654 9.4773L892.654 12.0062H905.202L905.203 9.4773L905.202 6.94835H892.654L892.654 9.4773ZM905.203 9.4773L903.067 9.47729V38.8762H905.203H907.338V9.47729L905.203 9.4773ZM905.203 38.8762L905.202 41.4052H933.771L933.771 38.8762L933.771 36.3473H905.202L905.203 38.8762ZM933.771 38.8762H931.635V51.2048H933.771H935.907V38.8762H933.771ZM933.771 51.2048L933.771 48.6759H905.202L905.203 51.2048L905.202 53.7338H933.771L933.771 51.2048ZM905.203 51.2048H903.067V161.214L905.203 161.214L907.338 161.214V51.2048H905.203ZM905.203 161.214L903.067 161.214C903.067 167.405 904 172.789 905.982 177.25L907.873 176.071L909.763 174.893C908.186 171.347 907.338 166.826 907.338 161.214L905.203 161.214ZM907.873 176.071L905.982 177.25C908.319 182.502 913.276 184.606 919.62 184.606L919.621 182.078L919.62 179.549C913.862 179.549 910.989 177.649 909.763 174.893L907.873 176.071ZM919.621 182.078L919.62 184.606C922.162 184.606 924.877 184.5 927.765 184.285L927.63 181.761L927.498 179.238C924.687 179.445 922.062 179.549 919.62 179.549L919.621 182.078ZM927.63 181.761L927.895 184.27C930.738 183.85 932.671 183.658 933.771 183.658L933.771 181.129L933.771 178.6C932.381 178.6 930.219 178.83 927.365 179.253L927.63 181.761ZM933.771 181.129L931.635 181.129V193.774L933.771 193.774L935.907 193.774V181.129L933.771 181.129ZM933.771 193.774L933.771 191.245C932.169 191.245 929.533 191.589 925.979 192.221L926.296 194.722L926.613 197.223C930.178 196.591 932.526 196.303 933.771 196.303L933.771 193.774ZM926.296 194.722L925.979 192.221C922.536 192.833 918.817 193.142 914.814 193.142L914.815 195.671L914.814 198.2C919.001 198.2 922.935 197.876 926.613 197.223L926.296 194.722ZM963.199 193.774L962.348 196.095L962.387 196.113L962.427 196.133L963.199 193.774ZM951.184 179.549L949.225 180.563L949.238 180.593L949.248 180.621L951.184 179.549ZM955.723 46.1469L954.236 44.3307L954.223 44.3446L954.21 44.3587L955.723 46.1469ZM1011.52 45.8308L1010.04 47.6481L1010.05 47.662L1010.06 47.6757L1011.52 45.8308ZM1016.33 179.549L1018.28 180.591L1018.29 180.563L1016.33 179.549ZM999.243 55.6305L997.515 57.118L997.528 57.1408L997.543 57.163L999.243 55.6305ZM968.539 55.3144L966.915 53.6685L966.911 53.6764L968.539 55.3144ZM968.539 178.916L966.876 180.507L966.913 180.56L966.949 180.608L968.539 178.916ZM983.757 197.567L983.757 195.038C975.739 195.038 969.166 193.797 963.969 191.414L963.199 193.774L962.427 196.133C968.265 198.809 975.399 200.096 983.757 200.096L983.757 197.567ZM963.199 193.774L964.046 191.452C959.225 188.979 955.586 184.71 953.117 178.476L951.184 179.549L949.248 180.621C952.121 187.876 956.489 193.089 962.348 196.095L963.199 193.774ZM951.184 179.549L953.14 178.535C950.816 172.245 949.582 163.368 949.582 151.73L947.446 151.73L945.31 151.73C945.31 163.695 946.566 173.363 949.225 180.563L951.184 179.549ZM947.446 151.73L949.582 151.73V78.7071H947.446H945.31V151.73L947.446 151.73ZM947.446 78.7071H949.582C949.582 63.7941 952.307 53.7669 957.233 47.9352L955.723 46.1469L954.21 44.3587C948.101 51.5933 945.31 63.2727 945.31 78.7071H947.446ZM955.723 46.1469L957.207 47.9632C962.316 42.1042 970.982 38.8762 983.757 38.8762L983.757 36.3473L983.757 33.8184C970.544 33.8184 960.52 37.1234 954.236 44.3307L955.723 46.1469ZM983.757 36.3473L983.757 38.8762C996.554 38.8762 1005.12 42.0104 1010.04 47.6481L1011.52 45.8308L1013.01 44.0135C1006.89 37.0066 996.947 33.8184 983.757 33.8184L983.757 36.3473ZM1011.52 45.8308L1010.06 47.6757C1015.11 53.2786 1017.93 63.3549 1017.93 78.7071H1020.07H1022.2C1022.2 62.8691 1019.33 51.0278 1012.99 43.986L1011.52 45.8308ZM1020.07 78.7071H1017.93V151.73L1020.07 151.73L1022.2 151.73V78.7071H1020.07ZM1020.07 151.73L1017.93 151.73C1017.93 163.368 1016.7 172.245 1014.37 178.535L1016.33 179.549L1018.29 180.563C1020.95 173.363 1022.2 163.695 1022.2 151.73L1020.07 151.73ZM1016.33 179.549L1014.38 178.507C1012.1 184.493 1008.56 188.658 1003.73 191.136L1004.58 193.458L1005.43 195.779C1011.28 192.777 1015.57 187.672 1018.28 180.591L1016.33 179.549ZM1004.58 193.458L1003.73 191.136C998.756 193.69 992.132 195.038 983.757 195.038L983.757 197.567L983.757 200.096C992.468 200.096 999.728 198.705 1005.43 195.779L1004.58 193.458ZM983.757 185.239L983.757 187.768C991.171 187.768 996.996 185.578 1000.6 180.555L998.976 178.916L997.348 177.278C994.9 180.687 990.579 182.71 983.757 182.71L983.757 185.239ZM998.976 178.916L1000.6 180.555C1004.16 175.601 1005.65 167.094 1005.65 155.84L1003.52 155.84L1001.38 155.84C1001.38 166.927 999.843 173.8 997.348 177.278L998.976 178.916ZM1003.52 155.84L1005.65 155.84V77.7587L1003.52 77.7587L1001.38 77.7587V155.84L1003.52 155.84ZM1003.52 77.7587L1005.65 77.7587C1005.65 67.2902 1004.23 59.2064 1000.94 54.0979L999.243 55.6305L997.543 57.163C999.952 60.9058 1001.38 67.5742 1001.38 77.7587L1003.52 77.7587ZM999.243 55.6305L1000.97 54.143C997.538 48.5563 991.532 46.1469 983.757 46.1469L983.757 48.6759L983.757 51.2048C990.932 51.2048 995.251 53.4318 997.515 57.118L999.243 55.6305ZM983.757 48.6759L983.757 46.1469C976.456 46.1469 970.672 48.4812 966.915 53.6685L968.539 55.3144L970.159 56.9602C972.812 53.2963 977.172 51.2048 983.757 51.2048L983.757 48.6759ZM968.539 55.3144L966.911 53.6764C963.363 58.6177 961.863 66.8979 961.863 77.7587L964 77.7587L966.135 77.7587C966.135 67.1235 967.66 60.4408 970.166 56.9521L968.539 55.3144ZM964 77.7587L961.863 77.7587V155.84L964 155.84L966.135 155.84V77.7587L964 77.7587ZM964 155.84L961.863 155.84C961.863 166.917 963.365 175.371 966.876 180.507L968.539 178.916L970.198 177.326C967.658 173.611 966.135 166.679 966.135 155.84L964 155.84ZM968.539 178.916L966.949 180.608C970.713 185.56 976.486 187.768 983.757 187.768L983.757 185.239L983.757 182.71C977.142 182.71 972.77 180.704 970.125 177.225L968.539 178.916ZM1044.78 195.354L1042.64 195.354V197.883H1044.78L1044.78 195.354ZM1044.78 38.8762L1044.78 36.3473H1042.64V38.8762H1044.78ZM1058.66 38.8762L1060.78 38.5452L1060.53 36.3473H1058.66L1058.66 38.8762ZM1060.53 55.6305L1058.41 55.9615L1059.49 65.6661L1062.52 56.5551L1060.53 55.6305ZM1083.49 38.244L1083.74 40.755L1083.84 40.7411L1083.94 40.7168L1083.49 38.244ZM1097.91 37.9279L1100.04 37.9279V35.839L1098.31 35.4445L1097.91 37.9279ZM1097.91 53.4177L1097.39 55.871L1100.04 56.6567V53.4177H1097.91ZM1082.69 53.7338L1082.94 56.2453L1083.22 56.2063L1083.48 56.0819L1082.69 53.7338ZM1067.47 61.6367L1068.87 63.5451L1068.89 63.5251L1068.91 63.5043L1067.47 61.6367ZM1061.33 195.354L1061.33 197.883H1063.46V195.354L1061.33 195.354ZM1044.78 195.354L1046.91 195.354V38.8762H1044.78H1042.64V195.354L1044.78 195.354ZM1044.78 38.8762L1044.78 41.4052H1058.66L1058.66 38.8762L1058.66 36.3473H1044.78L1044.78 38.8762ZM1058.66 38.8762L1056.54 39.2073L1058.41 55.9615L1060.53 55.6305L1062.64 55.2994L1060.78 38.5452L1058.66 38.8762ZM1060.53 55.6305L1062.52 56.5551C1064.3 51.194 1067.14 47.4936 1071.06 45.2656L1070.14 42.9858L1069.22 40.7059C1064.24 43.5358 1060.68 48.2654 1058.54 54.7056L1060.53 55.6305ZM1070.14 42.9858L1071.06 45.2656C1075.32 42.8447 1079.55 41.3511 1083.74 40.755L1083.49 38.244L1083.24 35.733C1078.53 36.4014 1073.85 38.069 1069.22 40.7059L1070.14 42.9858ZM1083.49 38.244L1083.94 40.7168C1088.66 39.5176 1093.18 39.4268 1097.5 40.4113L1097.91 37.9279L1098.31 35.4445C1093.38 34.3216 1088.28 34.4415 1083.04 35.7712L1083.49 38.244ZM1097.91 37.9279L1095.77 37.9279V53.4177H1097.91H1100.04V37.9279L1097.91 37.9279ZM1097.91 53.4177L1098.43 50.9643C1097.55 50.7041 1096.16 50.4795 1094.38 50.2691L1094.17 52.7854L1093.96 55.3017C1095.74 55.5126 1096.84 55.7099 1097.39 55.871L1097.91 53.4177ZM1094.17 52.7854L1094.38 50.2691C1092.52 50.0486 1090.49 49.9404 1088.3 49.9404L1088.3 52.4693L1088.3 54.9982C1090.37 54.9982 1092.26 55.1009 1093.96 55.3017L1094.17 52.7854ZM1088.3 52.4693L1088.3 49.9404C1086.07 49.9404 1083.93 50.4206 1081.9 51.3856L1082.69 53.7338L1083.48 56.0819C1085 55.3609 1086.6 54.9982 1088.3 54.9982L1088.3 52.4693ZM1082.69 53.7338L1082.44 51.222C1075.99 52.1206 1070.49 54.951 1066.03 59.7691L1067.47 61.6367L1068.91 63.5043C1072.64 59.4709 1077.28 57.033 1082.94 56.2453L1082.69 53.7338ZM1067.47 61.6367L1066.07 59.7284C1061.44 64.4974 1059.19 71.0355 1059.19 79.0232L1061.33 79.0232L1063.46 79.0232C1063.46 72.2585 1065.31 67.2059 1068.87 63.5451L1067.47 61.6367ZM1061.33 79.0232L1059.19 79.0232V195.354L1061.33 195.354L1063.46 195.354V79.0232L1061.33 79.0232ZM1061.33 195.354L1061.33 192.826H1044.78L1044.78 195.354L1044.78 197.883H1061.33L1061.33 195.354Z" fill="#CE4200"/>
<g clip-path="url(#clip0_2041_31)">
<path d="M275.163 194.686C273.627 194.686 271.92 194.686 270.043 194.686C268.165 194.686 266.373 194.584 264.667 194.381V180.667H273.115C278.576 180.87 282.331 179.752 284.379 177.314C286.597 174.673 287.707 169.898 287.707 162.991V14.2667H303.835V154.762C303.835 164.921 303.067 172.946 301.531 178.838C299.995 184.73 297.179 188.895 293.083 191.333C288.987 193.568 283.013 194.686 275.163 194.686ZM363.937 196.514C356.086 196.514 349.515 195.295 344.225 192.857C339.105 190.216 335.265 185.645 332.705 179.143C330.315 172.641 329.121 163.702 329.121 152.324V81.9238C329.121 67.2952 331.766 56.8317 337.057 50.5333C342.518 44.235 351.478 41.0857 363.937 41.0857C376.395 41.0857 385.27 44.1333 390.561 50.2286C396.022 56.3238 398.753 66.8888 398.753 81.9238V152.324C398.753 163.702 397.558 172.641 395.169 179.143C392.779 185.441 389.025 189.911 383.905 192.552C378.785 195.194 372.129 196.514 363.937 196.514ZM363.937 184.629C370.763 184.629 375.627 182.597 378.529 178.533C381.43 174.47 382.881 167.054 382.881 156.286V81.0095C382.881 71.0541 381.515 63.9429 378.785 59.6762C376.054 55.2064 371.105 52.9714 363.937 52.9714C357.281 52.9714 352.417 55.1048 349.345 59.3714C346.443 63.435 344.993 70.6476 344.993 81.0095V156.286C344.993 166.851 346.443 174.267 349.345 178.533C352.417 182.597 357.281 184.629 363.937 184.629ZM460.075 196.514C452.053 196.514 446.08 194.889 442.155 191.638C438.4 188.184 435.84 184.426 434.475 180.362L433.707 194.381H422.443V2.38098H438.059V56.0191C440.107 50.9398 443.093 47.181 447.019 44.7429C451.115 42.1017 456.235 40.781 462.379 40.781C468.865 40.781 474.325 42 478.763 44.4381C483.201 46.8762 486.529 50.8381 488.747 56.3238C490.965 61.8095 492.075 69.4286 492.075 79.181V153.848C492.075 162.178 491.393 169.086 490.027 174.571C488.833 180.057 486.955 184.425 484.395 187.676C481.835 190.927 478.507 193.162 474.411 194.381C470.485 195.803 465.707 196.514 460.075 196.514ZM457.259 183.105C462.037 183.105 465.793 182.292 468.523 180.667C471.253 179.041 473.217 176.298 474.411 172.438C475.605 168.375 476.203 162.787 476.203 155.676V79.7905C476.203 69.6317 474.753 62.7238 471.851 59.0667C469.121 55.4095 464.257 53.581 457.259 53.581C450.091 53.581 445.141 55.7143 442.411 59.981C439.68 64.2476 438.315 70.4445 438.315 78.5714V153.848C438.315 164.21 439.765 171.727 442.667 176.4C445.739 180.87 450.603 183.105 457.259 183.105Z" fill="#102030"/>
<mask id="mask0_2041_31" style="mask-type:luminance" maskUnits="userSpaceOnUse" x="260" y="-1" width="235" height="201">
<path d="M494.875 -0.857117H260.875V199.143H494.875V-0.857117Z" fill="white"/>
<path d="M275.163 194.686C273.627 194.686 271.92 194.686 270.043 194.686C268.165 194.686 266.373 194.584 264.667 194.381V180.667H273.115C278.576 180.87 282.331 179.752 284.379 177.314C286.597 174.673 287.707 169.898 287.707 162.991V14.2667H303.835V154.762C303.835 164.921 303.067 172.946 301.531 178.838C299.995 184.73 297.179 188.895 293.083 191.333C288.987 193.568 283.013 194.686 275.163 194.686ZM363.937 196.514C356.086 196.514 349.515 195.295 344.225 192.857C339.105 190.216 335.265 185.645 332.705 179.143C330.315 172.641 329.121 163.702 329.121 152.324V81.9238C329.121 67.2952 331.766 56.8317 337.057 50.5333C342.518 44.235 351.478 41.0857 363.937 41.0857C376.395 41.0857 385.27 44.1333 390.561 50.2286C396.022 56.3238 398.753 66.8888 398.753 81.9238V152.324C398.753 163.702 397.558 172.641 395.169 179.143C392.779 185.441 389.025 189.911 383.905 192.552C378.785 195.194 372.129 196.514 363.937 196.514ZM363.937 184.629C370.763 184.629 375.627 182.597 378.529 178.533C381.43 174.47 382.881 167.054 382.881 156.286V81.0095C382.881 71.0541 381.515 63.9429 378.785 59.6762C376.054 55.2064 371.105 52.9714 363.937 52.9714C357.281 52.9714 352.417 55.1048 349.345 59.3714C346.443 63.435 344.993 70.6476 344.993 81.0095V156.286C344.993 166.851 346.443 174.267 349.345 178.533C352.417 182.597 357.281 184.629 363.937 184.629ZM460.075 196.514C452.053 196.514 446.08 194.889 442.155 191.638C438.4 188.184 435.84 184.426 434.475 180.362L433.707 194.381H422.443V2.38098H438.059V56.0191C440.107 50.9398 443.093 47.181 447.019 44.7429C451.115 42.1017 456.235 40.781 462.379 40.781C468.865 40.781 474.325 42 478.763 44.4381C483.201 46.8762 486.529 50.8381 488.747 56.3238C490.965 61.8095 492.075 69.4286 492.075 79.181V153.848C492.075 162.178 491.393 169.086 490.027 174.571C488.833 180.057 486.955 184.425 484.395 187.676C481.835 190.927 478.507 193.162 474.411 194.381C470.485 195.803 465.707 196.514 460.075 196.514ZM457.259 183.105C462.037 183.105 465.793 182.292 468.523 180.667C471.253 179.041 473.217 176.298 474.411 172.438C475.605 168.375 476.203 162.787 476.203 155.676V79.7905C476.203 69.6317 474.753 62.7238 471.851 59.0667C469.121 55.4095 464.257 53.581 457.259 53.581C450.091 53.581 445.141 55.7143 442.411 59.981C439.68 64.2476 438.315 70.4445 438.315 78.5714V153.848C438.315 164.21 439.765 171.727 442.667 176.4C445.739 180.87 450.603 183.105 457.259 183.105Z" fill="black"/>
</mask>
<g mask="url(#mask0_2041_31)">
<path d="M264.667 194.381H262.667V196.536L264.468 196.75L264.667 194.381ZM264.667 180.667V178.286H262.667V180.667H264.667ZM273.115 180.667L273.177 178.287L273.146 178.286H273.115V180.667ZM287.707 14.2667V11.8857H285.707V14.2667H287.707ZM303.835 14.2667H305.835V11.8857H303.835V14.2667ZM293.083 191.333L293.916 193.498L293.947 193.481L293.977 193.463L293.083 191.333ZM275.163 194.686V192.305C275.16 192.305 275.157 192.305 275.154 192.305C275.151 192.305 275.148 192.305 275.145 192.305C275.142 192.305 275.139 192.305 275.136 192.305C275.133 192.305 275.13 192.305 275.127 192.305C275.124 192.305 275.121 192.305 275.118 192.305C275.115 192.305 275.112 192.305 275.109 192.305C275.106 192.305 275.103 192.305 275.1 192.305C275.097 192.305 275.094 192.305 275.091 192.305C275.088 192.305 275.085 192.305 275.082 192.305C275.079 192.305 275.075 192.305 275.072 192.305C275.069 192.305 275.066 192.305 275.063 192.305C275.06 192.305 275.057 192.305 275.054 192.305C275.051 192.305 275.048 192.305 275.045 192.305C275.042 192.305 275.039 192.305 275.036 192.305C275.033 192.305 275.03 192.305 275.027 192.305C275.024 192.305 275.021 192.305 275.018 192.305C275.015 192.305 275.012 192.305 275.009 192.305C275.006 192.305 275.003 192.305 275 192.305C274.997 192.305 274.994 192.305 274.991 192.305C274.988 192.305 274.985 192.305 274.982 192.305C274.979 192.305 274.976 192.305 274.973 192.305C274.97 192.305 274.967 192.305 274.964 192.305C274.961 192.305 274.958 192.305 274.955 192.305C274.952 192.305 274.949 192.305 274.946 192.305C274.943 192.305 274.939 192.305 274.936 192.305C274.933 192.305 274.93 192.305 274.927 192.305C274.924 192.305 274.921 192.305 274.918 192.305C274.915 192.305 274.912 192.305 274.909 192.305C274.906 192.305 274.903 192.305 274.9 192.305C274.897 192.305 274.894 192.305 274.891 192.305C274.888 192.305 274.885 192.305 274.882 192.305C274.879 192.305 274.876 192.305 274.873 192.305C274.87 192.305 274.867 192.305 274.864 192.305C274.861 192.305 274.857 192.305 274.854 192.305C274.851 192.305 274.848 192.305 274.845 192.305C274.842 192.305 274.839 192.305 274.836 192.305C274.833 192.305 274.83 192.305 274.827 192.305C274.824 192.305 274.821 192.305 274.818 192.305C274.815 192.305 274.812 192.305 274.809 192.305C274.806 192.305 274.803 192.305 274.8 192.305C274.797 192.305 274.793 192.305 274.79 192.305C274.787 192.305 274.784 192.305 274.781 192.305C274.778 192.305 274.775 192.305 274.772 192.305C274.769 192.305 274.766 192.305 274.763 192.305C274.76 192.305 274.757 192.305 274.754 192.305C274.751 192.305 274.748 192.305 274.745 192.305C274.741 192.305 274.738 192.305 274.735 192.305C274.732 192.305 274.729 192.305 274.726 192.305C274.723 192.305 274.72 192.305 274.717 192.305C274.714 192.305 274.711 192.305 274.708 192.305C274.705 192.305 274.702 192.305 274.699 192.305C274.696 192.305 274.692 192.305 274.689 192.305C274.686 192.305 274.683 192.305 274.68 192.305C274.677 192.305 274.674 192.305 274.671 192.305C274.668 192.305 274.665 192.305 274.662 192.305C274.659 192.305 274.656 192.305 274.653 192.305C274.649 192.305 274.646 192.305 274.643 192.305C274.64 192.305 274.637 192.305 274.634 192.305C274.631 192.305 274.628 192.305 274.625 192.305C274.622 192.305 274.619 192.305 274.616 192.305C274.613 192.305 274.609 192.305 274.606 192.305C274.603 192.305 274.6 192.305 274.597 192.305C274.594 192.305 274.591 192.305 274.588 192.305C274.585 192.305 274.582 192.305 274.579 192.305C274.576 192.305 274.573 192.305 274.569 192.305C274.566 192.305 274.563 192.305 274.56 192.305C274.557 192.305 274.554 192.305 274.551 192.305C274.548 192.305 274.545 192.305 274.542 192.305C274.539 192.305 274.535 192.305 274.532 192.305C274.529 192.305 274.526 192.305 274.523 192.305C274.52 192.305 274.517 192.305 274.514 192.305C274.511 192.305 274.508 192.305 274.505 192.305C274.501 192.305 274.498 192.305 274.495 192.305C274.492 192.305 274.489 192.305 274.486 192.305C274.483 192.305 274.48 192.305 274.477 192.305C274.474 192.305 274.47 192.305 274.467 192.305C274.464 192.305 274.461 192.305 274.458 192.305C274.455 192.305 274.452 192.305 274.449 192.305C274.446 192.305 274.443 192.305 274.439 192.305C274.436 192.305 274.433 192.305 274.43 192.305C274.427 192.305 274.424 192.305 274.421 192.305C274.418 192.305 274.415 192.305 274.412 192.305C274.408 192.305 274.405 192.305 274.402 192.305C274.399 192.305 274.396 192.305 274.393 192.305C274.39 192.305 274.387 192.305 274.384 192.305C274.38 192.305 274.377 192.305 274.374 192.305C274.371 192.305 274.368 192.305 274.365 192.305C274.362 192.305 274.359 192.305 274.356 192.305C274.352 192.305 274.349 192.305 274.346 192.305C274.343 192.305 274.34 192.305 274.337 192.305C274.334 192.305 274.331 192.305 274.328 192.305C274.324 192.305 274.321 192.305 274.318 192.305C274.315 192.305 274.312 192.305 274.309 192.305C274.306 192.305 274.303 192.305 274.299 192.305C274.296 192.305 274.293 192.305 274.29 192.305C274.287 192.305 274.284 192.305 274.281 192.305C274.278 192.305 274.274 192.305 274.271 192.305C274.268 192.305 274.265 192.305 274.262 192.305C274.259 192.305 274.256 192.305 274.253 192.305C274.249 192.305 274.246 192.305 274.243 192.305C274.24 192.305 274.237 192.305 274.234 192.305C274.231 192.305 274.227 192.305 274.224 192.305C274.221 192.305 274.218 192.305 274.215 192.305C274.212 192.305 274.209 192.305 274.206 192.305C274.202 192.305 274.199 192.305 274.196 192.305C274.193 192.305 274.19 192.305 274.187 192.305C274.184 192.305 274.18 192.305 274.177 192.305C274.174 192.305 274.171 192.305 274.168 192.305C274.165 192.305 274.162 192.305 274.158 192.305C274.155 192.305 274.152 192.305 274.149 192.305C274.146 192.305 274.143 192.305 274.14 192.305C274.136 192.305 274.133 192.305 274.13 192.305C274.127 192.305 274.124 192.305 274.121 192.305C274.118 192.305 274.114 192.305 274.111 192.305C274.108 192.305 274.105 192.305 274.102 192.305C274.099 192.305 274.096 192.305 274.092 192.305C274.089 192.305 274.086 192.305 274.083 192.305C274.08 192.305 274.077 192.305 274.073 192.305C274.07 192.305 274.067 192.305 274.064 192.305C274.061 192.305 274.058 192.305 274.055 192.305C274.051 192.305 274.048 192.305 274.045 192.305C274.042 192.305 274.039 192.305 274.036 192.305C274.032 192.305 274.029 192.305 274.026 192.305C274.023 192.305 274.02 192.305 274.017 192.305C274.013 192.305 274.01 192.305 274.007 192.305C274.004 192.305 274.001 192.305 273.998 192.305C273.995 192.305 273.991 192.305 273.988 192.305C273.985 192.305 273.982 192.305 273.979 192.305C273.976 192.305 273.972 192.305 273.969 192.305C273.966 192.305 273.963 192.305 273.96 192.305C273.957 192.305 273.953 192.305 273.95 192.305C273.947 192.305 273.944 192.305 273.941 192.305C273.937 192.305 273.934 192.305 273.931 192.305C273.928 192.305 273.925 192.305 273.922 192.305C273.918 192.305 273.915 192.305 273.912 192.305C273.909 192.305 273.906 192.305 273.903 192.305C273.899 192.305 273.896 192.305 273.893 192.305C273.89 192.305 273.887 192.305 273.883 192.305C273.88 192.305 273.877 192.305 273.874 192.305C273.871 192.305 273.868 192.305 273.864 192.305C273.861 192.305 273.858 192.305 273.855 192.305C273.852 192.305 273.848 192.305 273.845 192.305C273.842 192.305 273.839 192.305 273.836 192.305C273.833 192.305 273.829 192.305 273.826 192.305C273.823 192.305 273.82 192.305 273.817 192.305C273.813 192.305 273.81 192.305 273.807 192.305C273.804 192.305 273.801 192.305 273.797 192.305C273.794 192.305 273.791 192.305 273.788 192.305C273.785 192.305 273.782 192.305 273.778 192.305C273.775 192.305 273.772 192.305 273.769 192.305C273.766 192.305 273.762 192.305 273.759 192.305C273.756 192.305 273.753 192.305 273.75 192.305C273.746 192.305 273.743 192.305 273.74 192.305C273.737 192.305 273.734 192.305 273.73 192.305C273.727 192.305 273.724 192.305 273.721 192.305C273.718 192.305 273.714 192.305 273.711 192.305C273.708 192.305 273.705 192.305 273.702 192.305C273.698 192.305 273.695 192.305 273.692 192.305C273.689 192.305 273.686 192.305 273.682 192.305C273.679 192.305 273.676 192.305 273.673 192.305C273.669 192.305 273.666 192.305 273.663 192.305C273.66 192.305 273.657 192.305 273.653 192.305C273.65 192.305 273.647 192.305 273.644 192.305C273.641 192.305 273.637 192.305 273.634 192.305C273.631 192.305 273.628 192.305 273.625 192.305C273.621 192.305 273.618 192.305 273.615 192.305C273.612 192.305 273.608 192.305 273.605 192.305C273.602 192.305 273.599 192.305 273.596 192.305C273.592 192.305 273.589 192.305 273.586 192.305C273.583 192.305 273.579 192.305 273.576 192.305C273.573 192.305 273.57 192.305 273.567 192.305C273.563 192.305 273.56 192.305 273.557 192.305C273.554 192.305 273.55 192.305 273.547 192.305C273.544 192.305 273.541 192.305 273.538 192.305C273.534 192.305 273.531 192.305 273.528 192.305C273.525 192.305 273.521 192.305 273.518 192.305C273.515 192.305 273.512 192.305 273.508 192.305C273.505 192.305 273.502 192.305 273.499 192.305C273.496 192.305 273.492 192.305 273.489 192.305C273.486 192.305 273.483 192.305 273.479 192.305C273.476 192.305 273.473 192.305 273.47 192.305C273.466 192.305 273.463 192.305 273.46 192.305C273.457 192.305 273.454 192.305 273.45 192.305C273.447 192.305 273.444 192.305 273.441 192.305C273.437 192.305 273.434 192.305 273.431 192.305C273.428 192.305 273.424 192.305 273.421 192.305C273.418 192.305 273.415 192.305 273.411 192.305C273.408 192.305 273.405 192.305 273.402 192.305C273.398 192.305 273.395 192.305 273.392 192.305C273.389 192.305 273.385 192.305 273.382 192.305C273.379 192.305 273.376 192.305 273.372 192.305C273.369 192.305 273.366 192.305 273.363 192.305C273.359 192.305 273.356 192.305 273.353 192.305C273.35 192.305 273.346 192.305 273.343 192.305C273.34 192.305 273.337 192.305 273.333 192.305C273.33 192.305 273.327 192.305 273.324 192.305C273.32 192.305 273.317 192.305 273.314 192.305C273.311 192.305 273.307 192.305 273.304 192.305C273.301 192.305 273.298 192.305 273.294 192.305C273.291 192.305 273.288 192.305 273.285 192.305C273.281 192.305 273.278 192.305 273.275 192.305C273.272 192.305 273.268 192.305 273.265 192.305C273.262 192.305 273.258 192.305 273.255 192.305C273.252 192.305 273.249 192.305 273.245 192.305C273.242 192.305 273.239 192.305 273.236 192.305C273.232 192.305 273.229 192.305 273.226 192.305C273.223 192.305 273.219 192.305 273.216 192.305C273.213 192.305 273.209 192.305 273.206 192.305C273.203 192.305 273.2 192.305 273.196 192.305C273.193 192.305 273.19 192.305 273.187 192.305C273.183 192.305 273.18 192.305 273.177 192.305C273.173 192.305 273.17 192.305 273.167 192.305C273.164 192.305 273.16 192.305 273.157 192.305C273.154 192.305 273.151 192.305 273.147 192.305C273.144 192.305 273.141 192.305 273.137 192.305C273.134 192.305 273.131 192.305 273.128 192.305C273.124 192.305 273.121 192.305 273.118 192.305C273.114 192.305 273.111 192.305 273.108 192.305C273.105 192.305 273.101 192.305 273.098 192.305C273.095 192.305 273.091 192.305 273.088 192.305C273.085 192.305 273.082 192.305 273.078 192.305C273.075 192.305 273.072 192.305 273.068 192.305C273.065 192.305 273.062 192.305 273.059 192.305C273.055 192.305 273.052 192.305 273.049 192.305C273.045 192.305 273.042 192.305 273.039 192.305C273.036 192.305 273.032 192.305 273.029 192.305C273.026 192.305 273.022 192.305 273.019 192.305C273.016 192.305 273.012 192.305 273.009 192.305C273.006 192.305 273.003 192.305 272.999 192.305C272.996 192.305 272.993 192.305 272.989 192.305C272.986 192.305 272.983 192.305 272.979 192.305C272.976 192.305 272.973 192.305 272.97 192.305C272.966 192.305 272.963 192.305 272.96 192.305C272.956 192.305 272.953 192.305 272.95 192.305C272.946 192.305 272.943 192.305 272.94 192.305C272.937 192.305 272.933 192.305 272.93 192.305C272.927 192.305 272.923 192.305 272.92 192.305C272.917 192.305 272.913 192.305 272.91 192.305C272.907 192.305 272.903 192.305 272.9 192.305C272.897 192.305 272.893 192.305 272.89 192.305C272.887 192.305 272.884 192.305 272.88 192.305C272.877 192.305 272.874 192.305 272.87 192.305C272.867 192.305 272.864 192.305 272.86 192.305C272.857 192.305 272.854 192.305 272.85 192.305C272.847 192.305 272.844 192.305 272.84 192.305C272.837 192.305 272.834 192.305 272.83 192.305C272.827 192.305 272.824 192.305 272.821 192.305C272.817 192.305 272.814 192.305 272.811 192.305C272.807 192.305 272.804 192.305 272.801 192.305C272.797 192.305 272.794 192.305 272.791 192.305C272.787 192.305 272.784 192.305 272.781 192.305C272.777 192.305 272.774 192.305 272.771 192.305C272.767 192.305 272.764 192.305 272.761 192.305C272.757 192.305 272.754 192.305 272.751 192.305C272.747 192.305 272.744 192.305 272.741 192.305C272.737 192.305 272.734 192.305 272.731 192.305C272.727 192.305 272.724 192.305 272.721 192.305C272.717 192.305 272.714 192.305 272.711 192.305C272.707 192.305 272.704 192.305 272.701 192.305C272.697 192.305 272.694 192.305 272.691 192.305C272.687 192.305 272.684 192.305 272.681 192.305C272.677 192.305 272.674 192.305 272.671 192.305C272.667 192.305 272.664 192.305 272.661 192.305C272.657 192.305 272.654 192.305 272.651 192.305C272.647 192.305 272.644 192.305 272.641 192.305C272.637 192.305 272.634 192.305 272.63 192.305C272.627 192.305 272.624 192.305 272.62 192.305C272.617 192.305 272.614 192.305 272.61 192.305C272.607 192.305 272.604 192.305 272.6 192.305C272.597 192.305 272.594 192.305 272.59 192.305C272.587 192.305 272.584 192.305 272.58 192.305C272.577 192.305 272.574 192.305 272.57 192.305C272.567 192.305 272.563 192.305 272.56 192.305C272.557 192.305 272.553 192.305 272.55 192.305C272.547 192.305 272.543 192.305 272.54 192.305C272.537 192.305 272.533 192.305 272.53 192.305C272.527 192.305 272.523 192.305 272.52 192.305C272.516 192.305 272.513 192.305 272.51 192.305C272.506 192.305 272.503 192.305 272.5 192.305C272.496 192.305 272.493 192.305 272.49 192.305C272.486 192.305 272.483 192.305 272.479 192.305C272.476 192.305 272.473 192.305 272.469 192.305C272.466 192.305 272.463 192.305 272.459 192.305C272.456 192.305 272.453 192.305 272.449 192.305C272.446 192.305 272.442 192.305 272.439 192.305C272.436 192.305 272.432 192.305 272.429 192.305C272.426 192.305 272.422 192.305 272.419 192.305C272.415 192.305 272.412 192.305 272.409 192.305C272.405 192.305 272.402 192.305 272.399 192.305C272.395 192.305 272.392 192.305 272.388 192.305C272.385 192.305 272.382 192.305 272.378 192.305C272.375 192.305 272.372 192.305 272.368 192.305C272.365 192.305 272.361 192.305 272.358 192.305C272.355 192.305 272.351 192.305 272.348 192.305C272.344 192.305 272.341 192.305 272.338 192.305C272.334 192.305 272.331 192.305 272.328 192.305C272.324 192.305 272.321 192.305 272.317 192.305C272.314 192.305 272.311 192.305 272.307 192.305C272.304 192.305 272.3 192.305 272.297 192.305C272.294 192.305 272.29 192.305 272.287 192.305C272.284 192.305 272.28 192.305 272.277 192.305C272.273 192.305 272.27 192.305 272.267 192.305C272.263 192.305 272.26 192.305 272.256 192.305C272.253 192.305 272.25 192.305 272.246 192.305C272.243 192.305 272.239 192.305 272.236 192.305C272.233 192.305 272.229 192.305 272.226 192.305C272.222 192.305 272.219 192.305 272.216 192.305C272.212 192.305 272.209 192.305 272.205 192.305C272.202 192.305 272.199 192.305 272.195 192.305C272.192 192.305 272.188 192.305 272.185 192.305C272.182 192.305 272.178 192.305 272.175 192.305C272.171 192.305 272.168 192.305 272.165 192.305C272.161 192.305 272.158 192.305 272.154 192.305C272.151 192.305 272.148 192.305 272.144 192.305C272.141 192.305 272.137 192.305 272.134 192.305C272.13 192.305 272.127 192.305 272.124 192.305C272.12 192.305 272.117 192.305 272.113 192.305C272.11 192.305 272.107 192.305 272.103 192.305C272.1 192.305 272.096 192.305 272.093 192.305C272.09 192.305 272.086 192.305 272.083 192.305C272.079 192.305 272.076 192.305 272.072 192.305C272.069 192.305 272.066 192.305 272.062 192.305C272.059 192.305 272.055 192.305 272.052 192.305C272.048 192.305 272.045 192.305 272.042 192.305C272.038 192.305 272.035 192.305 272.031 192.305C272.028 192.305 272.025 192.305 272.021 192.305C272.018 192.305 272.014 192.305 272.011 192.305C272.007 192.305 272.004 192.305 272.001 192.305C271.997 192.305 271.994 192.305 271.99 192.305C271.987 192.305 271.983 192.305 271.98 192.305C271.977 192.305 271.973 192.305 271.97 192.305C271.966 192.305 271.963 192.305 271.959 192.305C271.956 192.305 271.953 192.305 271.949 192.305C271.946 192.305 271.942 192.305 271.939 192.305C271.935 192.305 271.932 192.305 271.928 192.305C271.925 192.305 271.922 192.305 271.918 192.305C271.915 192.305 271.911 192.305 271.908 192.305C271.904 192.305 271.901 192.305 271.898 192.305C271.894 192.305 271.891 192.305 271.887 192.305C271.884 192.305 271.88 192.305 271.877 192.305C271.873 192.305 271.87 192.305 271.867 192.305C271.863 192.305 271.86 192.305 271.856 192.305C271.853 192.305 271.849 192.305 271.846 192.305C271.842 192.305 271.839 192.305 271.836 192.305C271.832 192.305 271.829 192.305 271.825 192.305C271.822 192.305 271.818 192.305 271.815 192.305C271.811 192.305 271.808 192.305 271.805 192.305C271.801 192.305 271.798 192.305 271.794 192.305C271.791 192.305 271.787 192.305 271.784 192.305C271.78 192.305 271.777 192.305 271.773 192.305C271.77 192.305 271.767 192.305 271.763 192.305C271.76 192.305 271.756 192.305 271.753 192.305C271.749 192.305 271.746 192.305 271.742 192.305C271.739 192.305 271.735 192.305 271.732 192.305C271.728 192.305 271.725 192.305 271.722 192.305C271.718 192.305 271.715 192.305 271.711 192.305C271.708 192.305 271.704 192.305 271.701 192.305C271.697 192.305 271.694 192.305 271.69 192.305C271.687 192.305 271.683 192.305 271.68 192.305C271.676 192.305 271.673 192.305 271.67 192.305C271.666 192.305 271.663 192.305 271.659 192.305C271.656 192.305 271.652 192.305 271.649 192.305C271.645 192.305 271.642 192.305 271.638 192.305C271.635 192.305 271.631 192.305 271.628 192.305C271.624 192.305 271.621 192.305 271.617 192.305C271.614 192.305 271.611 192.305 271.607 192.305C271.604 192.305 271.6 192.305 271.597 192.305C271.593 192.305 271.59 192.305 271.586 192.305C271.583 192.305 271.579 192.305 271.576 192.305C271.572 192.305 271.569 192.305 271.565 192.305C271.562 192.305 271.558 192.305 271.555 192.305C271.551 192.305 271.548 192.305 271.544 192.305C271.541 192.305 271.537 192.305 271.534 192.305C271.53 192.305 271.527 192.305 271.523 192.305C271.52 192.305 271.517 192.305 271.513 192.305C271.51 192.305 271.506 192.305 271.503 192.305C271.499 192.305 271.496 192.305 271.492 192.305C271.489 192.305 271.485 192.305 271.482 192.305C271.478 192.305 271.475 192.305 271.471 192.305C271.468 192.305 271.464 192.305 271.461 192.305C271.457 192.305 271.454 192.305 271.45 192.305C271.447 192.305 271.443 192.305 271.44 192.305C271.436 192.305 271.433 192.305 271.429 192.305C271.426 192.305 271.422 192.305 271.419 192.305C271.415 192.305 271.412 192.305 271.408 192.305C271.405 192.305 271.401 192.305 271.398 192.305C271.394 192.305 271.391 192.305 271.387 192.305C271.384 192.305 271.38 192.305 271.377 192.305C271.373 192.305 271.37 192.305 271.366 192.305C271.363 192.305 271.359 192.305 271.356 192.305C271.352 192.305 271.349 192.305 271.345 192.305C271.342 192.305 271.338 192.305 271.335 192.305C271.331 192.305 271.328 192.305 271.324 192.305C271.321 192.305 271.317 192.305 271.313 192.305C271.31 192.305 271.306 192.305 271.303 192.305C271.299 192.305 271.296 192.305 271.292 192.305C271.289 192.305 271.285 192.305 271.282 192.305C271.278 192.305 271.275 192.305 271.271 192.305C271.268 192.305 271.264 192.305 271.261 192.305C271.257 192.305 271.254 192.305 271.25 192.305C271.247 192.305 271.243 192.305 271.24 192.305C271.236 192.305 271.233 192.305 271.229 192.305C271.226 192.305 271.222 192.305 271.218 192.305C271.215 192.305 271.211 192.305 271.208 192.305C271.204 192.305 271.201 192.305 271.197 192.305C271.194 192.305 271.19 192.305 271.187 192.305C271.183 192.305 271.18 192.305 271.176 192.305C271.173 192.305 271.169 192.305 271.166 192.305C271.162 192.305 271.158 192.305 271.155 192.305C271.151 192.305 271.148 192.305 271.144 192.305C271.141 192.305 271.137 192.305 271.134 192.305C271.13 192.305 271.127 192.305 271.123 192.305C271.12 192.305 271.116 192.305 271.113 192.305C271.109 192.305 271.105 192.305 271.102 192.305C271.098 192.305 271.095 192.305 271.091 192.305C271.088 192.305 271.084 192.305 271.081 192.305C271.077 192.305 271.074 192.305 271.07 192.305C271.067 192.305 271.063 192.305 271.059 192.305C271.056 192.305 271.052 192.305 271.049 192.305C271.045 192.305 271.042 192.305 271.038 192.305C271.035 192.305 271.031 192.305 271.028 192.305C271.024 192.305 271.02 192.305 271.017 192.305C271.013 192.305 271.01 192.305 271.006 192.305C271.003 192.305 270.999 192.305 270.996 192.305C270.992 192.305 270.988 192.305 270.985 192.305C270.981 192.305 270.978 192.305 270.974 192.305C270.971 192.305 270.967 192.305 270.964 192.305C270.96 192.305 270.956 192.305 270.953 192.305C270.949 192.305 270.946 192.305 270.942 192.305C270.939 192.305 270.935 192.305 270.932 192.305C270.928 192.305 270.924 192.305 270.921 192.305C270.917 192.305 270.914 192.305 270.91 192.305C270.907 192.305 270.903 192.305 270.899 192.305C270.896 192.305 270.892 192.305 270.889 192.305C270.885 192.305 270.882 192.305 270.878 192.305C270.875 192.305 270.871 192.305 270.867 192.305C270.864 192.305 270.86 192.305 270.857 192.305C270.853 192.305 270.85 192.305 270.846 192.305C270.842 192.305 270.839 192.305 270.835 192.305C270.832 192.305 270.828 192.305 270.825 192.305C270.821 192.305 270.817 192.305 270.814 192.305C270.81 192.305 270.807 192.305 270.803 192.305C270.8 192.305 270.796 192.305 270.792 192.305C270.789 192.305 270.785 192.305 270.782 192.305C270.778 192.305 270.774 192.305 270.771 192.305C270.767 192.305 270.764 192.305 270.76 192.305C270.757 192.305 270.753 192.305 270.749 192.305C270.746 192.305 270.742 192.305 270.739 192.305C270.735 192.305 270.732 192.305 270.728 192.305C270.724 192.305 270.721 192.305 270.717 192.305C270.714 192.305 270.71 192.305 270.706 192.305C270.703 192.305 270.699 192.305 270.696 192.305C270.692 192.305 270.688 192.305 270.685 192.305C270.681 192.305 270.678 192.305 270.674 192.305C270.671 192.305 270.667 192.305 270.663 192.305C270.66 192.305 270.656 192.305 270.653 192.305C270.649 192.305 270.645 192.305 270.642 192.305C270.638 192.305 270.635 192.305 270.631 192.305C270.627 192.305 270.624 192.305 270.62 192.305C270.617 192.305 270.613 192.305 270.609 192.305C270.606 192.305 270.602 192.305 270.599 192.305C270.595 192.305 270.591 192.305 270.588 192.305C270.584 192.305 270.581 192.305 270.577 192.305C270.573 192.305 270.57 192.305 270.566 192.305C270.563 192.305 270.559 192.305 270.555 192.305C270.552 192.305 270.548 192.305 270.545 192.305C270.541 192.305 270.537 192.305 270.534 192.305C270.53 192.305 270.527 192.305 270.523 192.305C270.519 192.305 270.516 192.305 270.512 192.305C270.508 192.305 270.505 192.305 270.501 192.305C270.498 192.305 270.494 192.305 270.49 192.305C270.487 192.305 270.483 192.305 270.48 192.305C270.476 192.305 270.472 192.305 270.469 192.305C270.465 192.305 270.461 192.305 270.458 192.305C270.454 192.305 270.451 192.305 270.447 192.305C270.443 192.305 270.44 192.305 270.436 192.305C270.433 192.305 270.429 192.305 270.425 192.305C270.422 192.305 270.418 192.305 270.414 192.305C270.411 192.305 270.407 192.305 270.404 192.305C270.4 192.305 270.396 192.305 270.393 192.305C270.389 192.305 270.385 192.305 270.382 192.305C270.378 192.305 270.375 192.305 270.371 192.305C270.367 192.305 270.364 192.305 270.36 192.305C270.356 192.305 270.353 192.305 270.349 192.305C270.346 192.305 270.342 192.305 270.338 192.305C270.335 192.305 270.331 192.305 270.327 192.305C270.324 192.305 270.32 192.305 270.316 192.305C270.313 192.305 270.309 192.305 270.306 192.305C270.302 192.305 270.298 192.305 270.295 192.305C270.291 192.305 270.287 192.305 270.284 192.305C270.28 192.305 270.276 192.305 270.273 192.305C270.269 192.305 270.266 192.305 270.262 192.305C270.258 192.305 270.255 192.305 270.251 192.305C270.247 192.305 270.244 192.305 270.24 192.305C270.236 192.305 270.233 192.305 270.229 192.305C270.225 192.305 270.222 192.305 270.218 192.305C270.215 192.305 270.211 192.305 270.207 192.305C270.204 192.305 270.2 192.305 270.196 192.305C270.193 192.305 270.189 192.305 270.185 192.305C270.182 192.305 270.178 192.305 270.174 192.305C270.171 192.305 270.167 192.305 270.163 192.305C270.16 192.305 270.156 192.305 270.152 192.305C270.149 192.305 270.145 192.305 270.142 192.305C270.138 192.305 270.134 192.305 270.131 192.305C270.127 192.305 270.123 192.305 270.12 192.305C270.116 192.305 270.112 192.305 270.109 192.305C270.105 192.305 270.101 192.305 270.098 192.305C270.094 192.305 270.09 192.305 270.087 192.305C270.083 192.305 270.079 192.305 270.076 192.305C270.072 192.305 270.068 192.305 270.065 192.305C270.061 192.305 270.057 192.305 270.054 192.305C270.05 192.305 270.046 192.305 270.043 192.305V194.686V197.067C270.046 197.067 270.05 197.067 270.054 197.067C270.057 197.067 270.061 197.067 270.065 197.067C270.068 197.067 270.072 197.067 270.076 197.067C270.079 197.067 270.083 197.067 270.087 197.067C270.09 197.067 270.094 197.067 270.098 197.067C270.101 197.067 270.105 197.067 270.109 197.067C270.112 197.067 270.116 197.067 270.12 197.067C270.123 197.067 270.127 197.067 270.131 197.067C270.134 197.067 270.138 197.067 270.142 197.067C270.145 197.067 270.149 197.067 270.152 197.067C270.156 197.067 270.16 197.067 270.163 197.067C270.167 197.067 270.171 197.067 270.174 197.067C270.178 197.067 270.182 197.067 270.185 197.067C270.189 197.067 270.193 197.067 270.196 197.067C270.2 197.067 270.204 197.067 270.207 197.067C270.211 197.067 270.215 197.067 270.218 197.067C270.222 197.067 270.225 197.067 270.229 197.067C270.233 197.067 270.236 197.067 270.24 197.067C270.244 197.067 270.247 197.067 270.251 197.067C270.255 197.067 270.258 197.067 270.262 197.067C270.266 197.067 270.269 197.067 270.273 197.067C270.276 197.067 270.28 197.067 270.284 197.067C270.287 197.067 270.291 197.067 270.295 197.067C270.298 197.067 270.302 197.067 270.306 197.067C270.309 197.067 270.313 197.067 270.316 197.067C270.32 197.067 270.324 197.067 270.327 197.067C270.331 197.067 270.335 197.067 270.338 197.067C270.342 197.067 270.346 197.067 270.349 197.067C270.353 197.067 270.356 197.067 270.36 197.067C270.364 197.067 270.367 197.067 270.371 197.067C270.375 197.067 270.378 197.067 270.382 197.067C270.385 197.067 270.389 197.067 270.393 197.067C270.396 197.067 270.4 197.067 270.404 197.067C270.407 197.067 270.411 197.067 270.414 197.067C270.418 197.067 270.422 197.067 270.425 197.067C270.429 197.067 270.433 197.067 270.436 197.067C270.44 197.067 270.443 197.067 270.447 197.067C270.451 197.067 270.454 197.067 270.458 197.067C270.461 197.067 270.465 197.067 270.469 197.067C270.472 197.067 270.476 197.067 270.48 197.067C270.483 197.067 270.487 197.067 270.49 197.067C270.494 197.067 270.498 197.067 270.501 197.067C270.505 197.067 270.508 197.067 270.512 197.067C270.516 197.067 270.519 197.067 270.523 197.067C270.527 197.067 270.53 197.067 270.534 197.067C270.537 197.067 270.541 197.067 270.545 197.067C270.548 197.067 270.552 197.067 270.555 197.067C270.559 197.067 270.563 197.067 270.566 197.067C270.57 197.067 270.573 197.067 270.577 197.067C270.581 197.067 270.584 197.067 270.588 197.067C270.591 197.067 270.595 197.067 270.599 197.067C270.602 197.067 270.606 197.067 270.609 197.067C270.613 197.067 270.617 197.067 270.62 197.067C270.624 197.067 270.627 197.067 270.631 197.067C270.635 197.067 270.638 197.067 270.642 197.067C270.645 197.067 270.649 197.067 270.653 197.067C270.656 197.067 270.66 197.067 270.663 197.067C270.667 197.067 270.671 197.067 270.674 197.067C270.678 197.067 270.681 197.067 270.685 197.067C270.688 197.067 270.692 197.067 270.696 197.067C270.699 197.067 270.703 197.067 270.706 197.067C270.71 197.067 270.714 197.067 270.717 197.067C270.721 197.067 270.724 197.067 270.728 197.067C270.732 197.067 270.735 197.067 270.739 197.067C270.742 197.067 270.746 197.067 270.749 197.067C270.753 197.067 270.757 197.067 270.76 197.067C270.764 197.067 270.767 197.067 270.771 197.067C270.774 197.067 270.778 197.067 270.782 197.067C270.785 197.067 270.789 197.067 270.792 197.067C270.796 197.067 270.8 197.067 270.803 197.067C270.807 197.067 270.81 197.067 270.814 197.067C270.817 197.067 270.821 197.067 270.825 197.067C270.828 197.067 270.832 197.067 270.835 197.067C270.839 197.067 270.842 197.067 270.846 197.067C270.85 197.067 270.853 197.067 270.857 197.067C270.86 197.067 270.864 197.067 270.867 197.067C270.871 197.067 270.875 197.067 270.878 197.067C270.882 197.067 270.885 197.067 270.889 197.067C270.892 197.067 270.896 197.067 270.899 197.067C270.903 197.067 270.907 197.067 270.91 197.067C270.914 197.067 270.917 197.067 270.921 197.067C270.924 197.067 270.928 197.067 270.932 197.067C270.935 197.067 270.939 197.067 270.942 197.067C270.946 197.067 270.949 197.067 270.953 197.067C270.956 197.067 270.96 197.067 270.964 197.067C270.967 197.067 270.971 197.067 270.974 197.067C270.978 197.067 270.981 197.067 270.985 197.067C270.988 197.067 270.992 197.067 270.996 197.067C270.999 197.067 271.003 197.067 271.006 197.067C271.01 197.067 271.013 197.067 271.017 197.067C271.02 197.067 271.024 197.067 271.028 197.067C271.031 197.067 271.035 197.067 271.038 197.067C271.042 197.067 271.045 197.067 271.049 197.067C271.052 197.067 271.056 197.067 271.059 197.067C271.063 197.067 271.067 197.067 271.07 197.067C271.074 197.067 271.077 197.067 271.081 197.067C271.084 197.067 271.088 197.067 271.091 197.067C271.095 197.067 271.098 197.067 271.102 197.067C271.105 197.067 271.109 197.067 271.113 197.067C271.116 197.067 271.12 197.067 271.123 197.067C271.127 197.067 271.13 197.067 271.134 197.067C271.137 197.067 271.141 197.067 271.144 197.067C271.148 197.067 271.151 197.067 271.155 197.067C271.158 197.067 271.162 197.067 271.166 197.067C271.169 197.067 271.173 197.067 271.176 197.067C271.18 197.067 271.183 197.067 271.187 197.067C271.19 197.067 271.194 197.067 271.197 197.067C271.201 197.067 271.204 197.067 271.208 197.067C271.211 197.067 271.215 197.067 271.218 197.067C271.222 197.067 271.226 197.067 271.229 197.067C271.233 197.067 271.236 197.067 271.24 197.067C271.243 197.067 271.247 197.067 271.25 197.067C271.254 197.067 271.257 197.067 271.261 197.067C271.264 197.067 271.268 197.067 271.271 197.067C271.275 197.067 271.278 197.067 271.282 197.067C271.285 197.067 271.289 197.067 271.292 197.067C271.296 197.067 271.299 197.067 271.303 197.067C271.306 197.067 271.31 197.067 271.313 197.067C271.317 197.067 271.321 197.067 271.324 197.067C271.328 197.067 271.331 197.067 271.335 197.067C271.338 197.067 271.342 197.067 271.345 197.067C271.349 197.067 271.352 197.067 271.356 197.067C271.359 197.067 271.363 197.067 271.366 197.067C271.37 197.067 271.373 197.067 271.377 197.067C271.38 197.067 271.384 197.067 271.387 197.067C271.391 197.067 271.394 197.067 271.398 197.067C271.401 197.067 271.405 197.067 271.408 197.067C271.412 197.067 271.415 197.067 271.419 197.067C271.422 197.067 271.426 197.067 271.429 197.067C271.433 197.067 271.436 197.067 271.44 197.067C271.443 197.067 271.447 197.067 271.45 197.067C271.454 197.067 271.457 197.067 271.461 197.067C271.464 197.067 271.468 197.067 271.471 197.067C271.475 197.067 271.478 197.067 271.482 197.067C271.485 197.067 271.489 197.067 271.492 197.067C271.496 197.067 271.499 197.067 271.503 197.067C271.506 197.067 271.51 197.067 271.513 197.067C271.517 197.067 271.52 197.067 271.523 197.067C271.527 197.067 271.53 197.067 271.534 197.067C271.537 197.067 271.541 197.067 271.544 197.067C271.548 197.067 271.551 197.067 271.555 197.067C271.558 197.067 271.562 197.067 271.565 197.067C271.569 197.067 271.572 197.067 271.576 197.067C271.579 197.067 271.583 197.067 271.586 197.067C271.59 197.067 271.593 197.067 271.597 197.067C271.6 197.067 271.604 197.067 271.607 197.067C271.611 197.067 271.614 197.067 271.617 197.067C271.621 197.067 271.624 197.067 271.628 197.067C271.631 197.067 271.635 197.067 271.638 197.067C271.642 197.067 271.645 197.067 271.649 197.067C271.652 197.067 271.656 197.067 271.659 197.067C271.663 197.067 271.666 197.067 271.67 197.067C271.673 197.067 271.676 197.067 271.68 197.067C271.683 197.067 271.687 197.067 271.69 197.067C271.694 197.067 271.697 197.067 271.701 197.067C271.704 197.067 271.708 197.067 271.711 197.067C271.715 197.067 271.718 197.067 271.722 197.067C271.725 197.067 271.728 197.067 271.732 197.067C271.735 197.067 271.739 197.067 271.742 197.067C271.746 197.067 271.749 197.067 271.753 197.067C271.756 197.067 271.76 197.067 271.763 197.067C271.767 197.067 271.77 197.067 271.773 197.067C271.777 197.067 271.78 197.067 271.784 197.067C271.787 197.067 271.791 197.067 271.794 197.067C271.798 197.067 271.801 197.067 271.805 197.067C271.808 197.067 271.811 197.067 271.815 197.067C271.818 197.067 271.822 197.067 271.825 197.067C271.829 197.067 271.832 197.067 271.836 197.067C271.839 197.067 271.842 197.067 271.846 197.067C271.849 197.067 271.853 197.067 271.856 197.067C271.86 197.067 271.863 197.067 271.867 197.067C271.87 197.067 271.873 197.067 271.877 197.067C271.88 197.067 271.884 197.067 271.887 197.067C271.891 197.067 271.894 197.067 271.898 197.067C271.901 197.067 271.904 197.067 271.908 197.067C271.911 197.067 271.915 197.067 271.918 197.067C271.922 197.067 271.925 197.067 271.928 197.067C271.932 197.067 271.935 197.067 271.939 197.067C271.942 197.067 271.946 197.067 271.949 197.067C271.953 197.067 271.956 197.067 271.959 197.067C271.963 197.067 271.966 197.067 271.97 197.067C271.973 197.067 271.977 197.067 271.98 197.067C271.983 197.067 271.987 197.067 271.99 197.067C271.994 197.067 271.997 197.067 272.001 197.067C272.004 197.067 272.007 197.067 272.011 197.067C272.014 197.067 272.018 197.067 272.021 197.067C272.025 197.067 272.028 197.067 272.031 197.067C272.035 197.067 272.038 197.067 272.042 197.067C272.045 197.067 272.048 197.067 272.052 197.067C272.055 197.067 272.059 197.067 272.062 197.067C272.066 197.067 272.069 197.067 272.072 197.067C272.076 197.067 272.079 197.067 272.083 197.067C272.086 197.067 272.09 197.067 272.093 197.067C272.096 197.067 272.1 197.067 272.103 197.067C272.107 197.067 272.11 197.067 272.113 197.067C272.117 197.067 272.12 197.067 272.124 197.067C272.127 197.067 272.13 197.067 272.134 197.067C272.137 197.067 272.141 197.067 272.144 197.067C272.148 197.067 272.151 197.067 272.154 197.067C272.158 197.067 272.161 197.067 272.165 197.067C272.168 197.067 272.171 197.067 272.175 197.067C272.178 197.067 272.182 197.067 272.185 197.067C272.188 197.067 272.192 197.067 272.195 197.067C272.199 197.067 272.202 197.067 272.205 197.067C272.209 197.067 272.212 197.067 272.216 197.067C272.219 197.067 272.222 197.067 272.226 197.067C272.229 197.067 272.233 197.067 272.236 197.067C272.239 197.067 272.243 197.067 272.246 197.067C272.25 197.067 272.253 197.067 272.256 197.067C272.26 197.067 272.263 197.067 272.267 197.067C272.27 197.067 272.273 197.067 272.277 197.067C272.28 197.067 272.284 197.067 272.287 197.067C272.29 197.067 272.294 197.067 272.297 197.067C272.3 197.067 272.304 197.067 272.307 197.067C272.311 197.067 272.314 197.067 272.317 197.067C272.321 197.067 272.324 197.067 272.328 197.067C272.331 197.067 272.334 197.067 272.338 197.067C272.341 197.067 272.344 197.067 272.348 197.067C272.351 197.067 272.355 197.067 272.358 197.067C272.361 197.067 272.365 197.067 272.368 197.067C272.372 197.067 272.375 197.067 272.378 197.067C272.382 197.067 272.385 197.067 272.388 197.067C272.392 197.067 272.395 197.067 272.399 197.067C272.402 197.067 272.405 197.067 272.409 197.067C272.412 197.067 272.415 197.067 272.419 197.067C272.422 197.067 272.426 197.067 272.429 197.067C272.432 197.067 272.436 197.067 272.439 197.067C272.442 197.067 272.446 197.067 272.449 197.067C272.453 197.067 272.456 197.067 272.459 197.067C272.463 197.067 272.466 197.067 272.469 197.067C272.473 197.067 272.476 197.067 272.479 197.067C272.483 197.067 272.486 197.067 272.49 197.067C272.493 197.067 272.496 197.067 272.5 197.067C272.503 197.067 272.506 197.067 272.51 197.067C272.513 197.067 272.516 197.067 272.52 197.067C272.523 197.067 272.527 197.067 272.53 197.067C272.533 197.067 272.537 197.067 272.54 197.067C272.543 197.067 272.547 197.067 272.55 197.067C272.553 197.067 272.557 197.067 272.56 197.067C272.563 197.067 272.567 197.067 272.57 197.067C272.574 197.067 272.577 197.067 272.58 197.067C272.584 197.067 272.587 197.067 272.59 197.067C272.594 197.067 272.597 197.067 272.6 197.067C272.604 197.067 272.607 197.067 272.61 197.067C272.614 197.067 272.617 197.067 272.62 197.067C272.624 197.067 272.627 197.067 272.63 197.067C272.634 197.067 272.637 197.067 272.641 197.067C272.644 197.067 272.647 197.067 272.651 197.067C272.654 197.067 272.657 197.067 272.661 197.067C272.664 197.067 272.667 197.067 272.671 197.067C272.674 197.067 272.677 197.067 272.681 197.067C272.684 197.067 272.687 197.067 272.691 197.067C272.694 197.067 272.697 197.067 272.701 197.067C272.704 197.067 272.707 197.067 272.711 197.067C272.714 197.067 272.717 197.067 272.721 197.067C272.724 197.067 272.727 197.067 272.731 197.067C272.734 197.067 272.737 197.067 272.741 197.067C272.744 197.067 272.747 197.067 272.751 197.067C272.754 197.067 272.757 197.067 272.761 197.067C272.764 197.067 272.767 197.067 272.771 197.067C272.774 197.067 272.777 197.067 272.781 197.067C272.784 197.067 272.787 197.067 272.791 197.067C272.794 197.067 272.797 197.067 272.801 197.067C272.804 197.067 272.807 197.067 272.811 197.067C272.814 197.067 272.817 197.067 272.821 197.067C272.824 197.067 272.827 197.067 272.83 197.067C272.834 197.067 272.837 197.067 272.84 197.067C272.844 197.067 272.847 197.067 272.85 197.067C272.854 197.067 272.857 197.067 272.86 197.067C272.864 197.067 272.867 197.067 272.87 197.067C272.874 197.067 272.877 197.067 272.88 197.067C272.884 197.067 272.887 197.067 272.89 197.067C272.893 197.067 272.897 197.067 272.9 197.067C272.903 197.067 272.907 197.067 272.91 197.067C272.913 197.067 272.917 197.067 272.92 197.067C272.923 197.067 272.927 197.067 272.93 197.067C272.933 197.067 272.937 197.067 272.94 197.067C272.943 197.067 272.946 197.067 272.95 197.067C272.953 197.067 272.956 197.067 272.96 197.067C272.963 197.067 272.966 197.067 272.97 197.067C272.973 197.067 272.976 197.067 272.979 197.067C272.983 197.067 272.986 197.067 272.989 197.067C272.993 197.067 272.996 197.067 272.999 197.067C273.003 197.067 273.006 197.067 273.009 197.067C273.012 197.067 273.016 197.067 273.019 197.067C273.022 197.067 273.026 197.067 273.029 197.067C273.032 197.067 273.036 197.067 273.039 197.067C273.042 197.067 273.045 197.067 273.049 197.067C273.052 197.067 273.055 197.067 273.059 197.067C273.062 197.067 273.065 197.067 273.068 197.067C273.072 197.067 273.075 197.067 273.078 197.067C273.082 197.067 273.085 197.067 273.088 197.067C273.091 197.067 273.095 197.067 273.098 197.067C273.101 197.067 273.105 197.067 273.108 197.067C273.111 197.067 273.114 197.067 273.118 197.067C273.121 197.067 273.124 197.067 273.128 197.067C273.131 197.067 273.134 197.067 273.137 197.067C273.141 197.067 273.144 197.067 273.147 197.067C273.151 197.067 273.154 197.067 273.157 197.067C273.16 197.067 273.164 197.067 273.167 197.067C273.17 197.067 273.173 197.067 273.177 197.067C273.18 197.067 273.183 197.067 273.187 197.067C273.19 197.067 273.193 197.067 273.196 197.067C273.2 197.067 273.203 197.067 273.206 197.067C273.209 197.067 273.213 197.067 273.216 197.067C273.219 197.067 273.223 197.067 273.226 197.067C273.229 197.067 273.232 197.067 273.236 197.067C273.239 197.067 273.242 197.067 273.245 197.067C273.249 197.067 273.252 197.067 273.255 197.067C273.258 197.067 273.262 197.067 273.265 197.067C273.268 197.067 273.272 197.067 273.275 197.067C273.278 197.067 273.281 197.067 273.285 197.067C273.288 197.067 273.291 197.067 273.294 197.067C273.298 197.067 273.301 197.067 273.304 197.067C273.307 197.067 273.311 197.067 273.314 197.067C273.317 197.067 273.32 197.067 273.324 197.067C273.327 197.067 273.33 197.067 273.333 197.067C273.337 197.067 273.34 197.067 273.343 197.067C273.346 197.067 273.35 197.067 273.353 197.067C273.356 197.067 273.359 197.067 273.363 197.067C273.366 197.067 273.369 197.067 273.372 197.067C273.376 197.067 273.379 197.067 273.382 197.067C273.385 197.067 273.389 197.067 273.392 197.067C273.395 197.067 273.398 197.067 273.402 197.067C273.405 197.067 273.408 197.067 273.411 197.067C273.415 197.067 273.418 197.067 273.421 197.067C273.424 197.067 273.428 197.067 273.431 197.067C273.434 197.067 273.437 197.067 273.441 197.067C273.444 197.067 273.447 197.067 273.45 197.067C273.454 197.067 273.457 197.067 273.46 197.067C273.463 197.067 273.466 197.067 273.47 197.067C273.473 197.067 273.476 197.067 273.479 197.067C273.483 197.067 273.486 197.067 273.489 197.067C273.492 197.067 273.496 197.067 273.499 197.067C273.502 197.067 273.505 197.067 273.508 197.067C273.512 197.067 273.515 197.067 273.518 197.067C273.521 197.067 273.525 197.067 273.528 197.067C273.531 197.067 273.534 197.067 273.538 197.067C273.541 197.067 273.544 197.067 273.547 197.067C273.55 197.067 273.554 197.067 273.557 197.067C273.56 197.067 273.563 197.067 273.567 197.067C273.57 197.067 273.573 197.067 273.576 197.067C273.579 197.067 273.583 197.067 273.586 197.067C273.589 197.067 273.592 197.067 273.596 197.067C273.599 197.067 273.602 197.067 273.605 197.067C273.608 197.067 273.612 197.067 273.615 197.067C273.618 197.067 273.621 197.067 273.625 197.067C273.628 197.067 273.631 197.067 273.634 197.067C273.637 197.067 273.641 197.067 273.644 197.067C273.647 197.067 273.65 197.067 273.653 197.067C273.657 197.067 273.66 197.067 273.663 197.067C273.666 197.067 273.669 197.067 273.673 197.067C273.676 197.067 273.679 197.067 273.682 197.067C273.686 197.067 273.689 197.067 273.692 197.067C273.695 197.067 273.698 197.067 273.702 197.067C273.705 197.067 273.708 197.067 273.711 197.067C273.714 197.067 273.718 197.067 273.721 197.067C273.724 197.067 273.727 197.067 273.73 197.067C273.734 197.067 273.737 197.067 273.74 197.067C273.743 197.067 273.746 197.067 273.75 197.067C273.753 197.067 273.756 197.067 273.759 197.067C273.762 197.067 273.766 197.067 273.769 197.067C273.772 197.067 273.775 197.067 273.778 197.067C273.782 197.067 273.785 197.067 273.788 197.067C273.791 197.067 273.794 197.067 273.797 197.067C273.801 197.067 273.804 197.067 273.807 197.067C273.81 197.067 273.813 197.067 273.817 197.067C273.82 197.067 273.823 197.067 273.826 197.067C273.829 197.067 273.833 197.067 273.836 197.067C273.839 197.067 273.842 197.067 273.845 197.067C273.848 197.067 273.852 197.067 273.855 197.067C273.858 197.067 273.861 197.067 273.864 197.067C273.868 197.067 273.871 197.067 273.874 197.067C273.877 197.067 273.88 197.067 273.883 197.067C273.887 197.067 273.89 197.067 273.893 197.067C273.896 197.067 273.899 197.067 273.903 197.067C273.906 197.067 273.909 197.067 273.912 197.067C273.915 197.067 273.918 197.067 273.922 197.067C273.925 197.067 273.928 197.067 273.931 197.067C273.934 197.067 273.937 197.067 273.941 197.067C273.944 197.067 273.947 197.067 273.95 197.067C273.953 197.067 273.957 197.067 273.96 197.067C273.963 197.067 273.966 197.067 273.969 197.067C273.972 197.067 273.976 197.067 273.979 197.067C273.982 197.067 273.985 197.067 273.988 197.067C273.991 197.067 273.995 197.067 273.998 197.067C274.001 197.067 274.004 197.067 274.007 197.067C274.01 197.067 274.013 197.067 274.017 197.067C274.02 197.067 274.023 197.067 274.026 197.067C274.029 197.067 274.032 197.067 274.036 197.067C274.039 197.067 274.042 197.067 274.045 197.067C274.048 197.067 274.051 197.067 274.055 197.067C274.058 197.067 274.061 197.067 274.064 197.067C274.067 197.067 274.07 197.067 274.073 197.067C274.077 197.067 274.08 197.067 274.083 197.067C274.086 197.067 274.089 197.067 274.092 197.067C274.096 197.067 274.099 197.067 274.102 197.067C274.105 197.067 274.108 197.067 274.111 197.067C274.114 197.067 274.118 197.067 274.121 197.067C274.124 197.067 274.127 197.067 274.13 197.067C274.133 197.067 274.136 197.067 274.14 197.067C274.143 197.067 274.146 197.067 274.149 197.067C274.152 197.067 274.155 197.067 274.158 197.067C274.162 197.067 274.165 197.067 274.168 197.067C274.171 197.067 274.174 197.067 274.177 197.067C274.18 197.067 274.184 197.067 274.187 197.067C274.19 197.067 274.193 197.067 274.196 197.067C274.199 197.067 274.202 197.067 274.206 197.067C274.209 197.067 274.212 197.067 274.215 197.067C274.218 197.067 274.221 197.067 274.224 197.067C274.227 197.067 274.231 197.067 274.234 197.067C274.237 197.067 274.24 197.067 274.243 197.067C274.246 197.067 274.249 197.067 274.253 197.067C274.256 197.067 274.259 197.067 274.262 197.067C274.265 197.067 274.268 197.067 274.271 197.067C274.274 197.067 274.278 197.067 274.281 197.067C274.284 197.067 274.287 197.067 274.29 197.067C274.293 197.067 274.296 197.067 274.299 197.067C274.303 197.067 274.306 197.067 274.309 197.067C274.312 197.067 274.315 197.067 274.318 197.067C274.321 197.067 274.324 197.067 274.328 197.067C274.331 197.067 274.334 197.067 274.337 197.067C274.34 197.067 274.343 197.067 274.346 197.067C274.349 197.067 274.352 197.067 274.356 197.067C274.359 197.067 274.362 197.067 274.365 197.067C274.368 197.067 274.371 197.067 274.374 197.067C274.377 197.067 274.38 197.067 274.384 197.067C274.387 197.067 274.39 197.067 274.393 197.067C274.396 197.067 274.399 197.067 274.402 197.067C274.405 197.067 274.408 197.067 274.412 197.067C274.415 197.067 274.418 197.067 274.421 197.067C274.424 197.067 274.427 197.067 274.43 197.067C274.433 197.067 274.436 197.067 274.439 197.067C274.443 197.067 274.446 197.067 274.449 197.067C274.452 197.067 274.455 197.067 274.458 197.067C274.461 197.067 274.464 197.067 274.467 197.067C274.47 197.067 274.474 197.067 274.477 197.067C274.48 197.067 274.483 197.067 274.486 197.067C274.489 197.067 274.492 197.067 274.495 197.067C274.498 197.067 274.501 197.067 274.505 197.067C274.508 197.067 274.511 197.067 274.514 197.067C274.517 197.067 274.52 197.067 274.523 197.067C274.526 197.067 274.529 197.067 274.532 197.067C274.535 197.067 274.539 197.067 274.542 197.067C274.545 197.067 274.548 197.067 274.551 197.067C274.554 197.067 274.557 197.067 274.56 197.067C274.563 197.067 274.566 197.067 274.569 197.067C274.573 197.067 274.576 197.067 274.579 197.067C274.582 197.067 274.585 197.067 274.588 197.067C274.591 197.067 274.594 197.067 274.597 197.067C274.6 197.067 274.603 197.067 274.606 197.067C274.609 197.067 274.613 197.067 274.616 197.067C274.619 197.067 274.622 197.067 274.625 197.067C274.628 197.067 274.631 197.067 274.634 197.067C274.637 197.067 274.64 197.067 274.643 197.067C274.646 197.067 274.649 197.067 274.653 197.067C274.656 197.067 274.659 197.067 274.662 197.067C274.665 197.067 274.668 197.067 274.671 197.067C274.674 197.067 274.677 197.067 274.68 197.067C274.683 197.067 274.686 197.067 274.689 197.067C274.692 197.067 274.696 197.067 274.699 197.067C274.702 197.067 274.705 197.067 274.708 197.067C274.711 197.067 274.714 197.067 274.717 197.067C274.72 197.067 274.723 197.067 274.726 197.067C274.729 197.067 274.732 197.067 274.735 197.067C274.738 197.067 274.741 197.067 274.745 197.067C274.748 197.067 274.751 197.067 274.754 197.067C274.757 197.067 274.76 197.067 274.763 197.067C274.766 197.067 274.769 197.067 274.772 197.067C274.775 197.067 274.778 197.067 274.781 197.067C274.784 197.067 274.787 197.067 274.79 197.067C274.793 197.067 274.797 197.067 274.8 197.067C274.803 197.067 274.806 197.067 274.809 197.067C274.812 197.067 274.815 197.067 274.818 197.067C274.821 197.067 274.824 197.067 274.827 197.067C274.83 197.067 274.833 197.067 274.836 197.067C274.839 197.067 274.842 197.067 274.845 197.067C274.848 197.067 274.851 197.067 274.854 197.067C274.857 197.067 274.861 197.067 274.864 197.067C274.867 197.067 274.87 197.067 274.873 197.067C274.876 197.067 274.879 197.067 274.882 197.067C274.885 197.067 274.888 197.067 274.891 197.067C274.894 197.067 274.897 197.067 274.9 197.067C274.903 197.067 274.906 197.067 274.909 197.067C274.912 197.067 274.915 197.067 274.918 197.067C274.921 197.067 274.924 197.067 274.927 197.067C274.93 197.067 274.933 197.067 274.936 197.067C274.939 197.067 274.943 197.067 274.946 197.067C274.949 197.067 274.952 197.067 274.955 197.067C274.958 197.067 274.961 197.067 274.964 197.067C274.967 197.067 274.97 197.067 274.973 197.067C274.976 197.067 274.979 197.067 274.982 197.067C274.985 197.067 274.988 197.067 274.991 197.067C274.994 197.067 274.997 197.067 275 197.067C275.003 197.067 275.006 197.067 275.009 197.067C275.012 197.067 275.015 197.067 275.018 197.067C275.021 197.067 275.024 197.067 275.027 197.067C275.03 197.067 275.033 197.067 275.036 197.067C275.039 197.067 275.042 197.067 275.045 197.067C275.048 197.067 275.051 197.067 275.054 197.067C275.057 197.067 275.06 197.067 275.063 197.067C275.066 197.067 275.069 197.067 275.072 197.067C275.075 197.067 275.079 197.067 275.082 197.067C275.085 197.067 275.088 197.067 275.091 197.067C275.094 197.067 275.097 197.067 275.1 197.067C275.103 197.067 275.106 197.067 275.109 197.067C275.112 197.067 275.115 197.067 275.118 197.067C275.121 197.067 275.124 197.067 275.127 197.067C275.13 197.067 275.133 197.067 275.136 197.067C275.139 197.067 275.142 197.067 275.145 197.067C275.148 197.067 275.151 197.067 275.154 197.067C275.157 197.067 275.16 197.067 275.163 197.067V194.686ZM270.043 194.686V192.305C268.226 192.305 266.5 192.206 264.866 192.012L264.667 194.381L264.468 196.75C266.246 196.962 268.105 197.067 270.043 197.067V194.686ZM264.667 194.381H266.667V180.667H264.667H262.667V194.381H264.667ZM264.667 180.667V183.048H273.115V180.667V178.286H264.667V180.667ZM273.115 180.667L273.052 183.046C278.624 183.254 283.125 182.174 285.793 178.998L284.379 177.314L282.964 175.631C281.536 177.331 278.528 178.486 273.177 178.287L273.115 180.667ZM284.379 177.314L285.793 178.998C288.6 175.657 289.707 170.046 289.707 162.99H287.707H285.707C285.707 169.75 284.595 173.689 282.964 175.631L284.379 177.314ZM287.707 162.99H289.707V14.2667H287.707H285.707V162.99H287.707ZM287.707 14.2667V16.6476H303.835V14.2667V11.8857H287.707V14.2667ZM303.835 14.2667H301.835V154.762H303.835H305.835V14.2667H303.835ZM303.835 154.762H301.835C301.835 164.815 301.071 172.569 299.62 178.132L301.531 178.838L303.441 179.544C305.062 173.324 305.835 165.027 305.835 154.762H303.835ZM301.531 178.838L299.62 178.132C298.223 183.494 295.731 187.095 292.188 189.204L293.083 191.333L293.977 193.463C298.627 190.695 301.767 185.966 303.441 179.544L301.531 178.838ZM293.083 191.333L292.249 189.169C288.541 191.192 282.908 192.305 275.163 192.305V194.686V197.067C283.118 197.067 289.432 195.944 293.916 193.498L293.083 191.333ZM344.225 192.857L343.429 195.042L343.466 195.06L343.503 195.078L344.225 192.857ZM332.705 179.143L330.872 180.097L330.883 180.125L330.894 180.154L332.705 179.143ZM337.057 50.5333L335.665 48.8233L335.654 48.8364L335.642 48.8497L337.057 50.5333ZM390.561 50.2286L389.17 51.9395L389.181 51.9526L389.193 51.9657L390.561 50.2286ZM395.169 179.143L396.991 180.123L397.001 180.097L395.169 179.143ZM378.785 59.6762L377.167 61.0766L377.18 61.0981L377.194 61.1193L378.785 59.6762ZM349.345 59.3714L347.826 57.8219L347.821 57.8295L349.345 59.3714ZM349.345 178.533L347.79 180.031L347.823 180.08L347.858 180.126L349.345 178.533ZM363.937 196.514V194.133C356.245 194.133 349.937 192.936 344.947 190.637L344.225 192.857L343.503 195.078C349.093 197.654 355.927 198.895 363.937 198.895V196.514ZM344.225 192.857L345.02 190.673C340.385 188.282 336.887 184.154 334.516 178.132L332.705 179.143L330.894 180.154C333.643 187.134 337.824 192.15 343.429 195.042L344.225 192.857ZM332.705 179.143L334.537 178.189C332.305 172.115 331.121 163.548 331.121 152.324H329.121H327.121C327.121 163.855 328.326 173.167 330.872 180.097L332.705 179.143ZM329.121 152.324H331.121V81.9238H329.121H327.121V152.324H329.121ZM329.121 81.9238H331.121C331.121 67.5407 333.735 57.855 338.471 52.2169L337.057 50.5333L335.642 48.8497C329.797 55.8086 327.121 67.0497 327.121 81.9238H329.121ZM337.057 50.5333L338.448 52.2433C343.359 46.5797 351.683 43.4666 363.937 43.4666V41.0857V38.7047C351.273 38.7047 341.677 41.8902 335.665 48.8233L337.057 50.5333ZM363.937 41.0857V43.4666C376.212 43.4666 384.439 46.4888 389.17 51.9395L390.561 50.2286L391.951 48.5176C386.101 41.7778 376.579 38.7047 363.937 38.7047V41.0857ZM390.561 50.2286L389.193 51.9657C394.047 57.3833 396.753 67.1176 396.753 81.9238H398.753H400.753C400.753 66.6602 397.997 55.2643 391.929 48.4916L390.561 50.2286ZM398.753 81.9238H396.753V152.324H398.753H400.753V81.9238H398.753ZM398.753 152.324H396.753C396.753 163.548 395.568 172.115 393.336 178.189L395.169 179.143L397.001 180.097C399.548 173.167 400.753 163.855 400.753 152.324H398.753ZM395.169 179.143L393.346 178.163C391.152 183.945 387.753 187.972 383.109 190.368L383.905 192.552L384.7 194.737C390.296 191.85 394.406 186.937 396.991 180.123L395.169 179.143ZM383.905 192.552L383.109 190.368C378.329 192.834 371.972 194.133 363.937 194.133V196.514V198.895C372.285 198.895 379.24 197.554 384.7 194.737L383.905 192.552ZM363.937 184.629V187.01C371.04 187.01 376.608 184.899 380.052 180.075L378.529 178.533L377.005 176.991C374.646 180.294 370.486 182.248 363.937 182.248V184.629ZM378.529 178.533L380.052 180.075C383.45 175.317 384.881 167.132 384.881 156.286H382.881H380.881C380.881 166.975 379.41 173.622 377.005 176.991L378.529 178.533ZM382.881 156.286H384.881V81.0095H382.881H380.881V156.286H382.881ZM382.881 81.0095H384.881C384.881 70.9202 383.518 63.1428 380.375 58.2333L378.785 59.6762L377.194 61.1193C379.513 64.7431 380.881 71.1876 380.881 81.0095H382.881ZM378.785 59.6762L380.402 58.2757C377.125 52.9112 371.386 50.5905 363.937 50.5905V52.9714V55.3524C370.823 55.3524 374.983 57.5014 377.167 61.0766L378.785 59.6762ZM363.937 52.9714V50.5905C356.945 50.5905 351.414 52.8381 347.826 57.8219L349.345 59.3714L350.863 60.9209C353.419 57.3714 357.616 55.3524 363.937 55.3524V52.9714ZM349.345 59.3714L347.821 57.8295C344.431 62.5766 342.993 70.5414 342.993 81.0095H344.993H346.993C346.993 70.7538 348.455 64.2931 350.868 60.9136L349.345 59.3714ZM344.993 81.0095H342.993V156.286H344.993H346.993V81.0095H344.993ZM344.993 156.286H342.993C342.993 166.963 344.434 175.096 347.79 180.031L349.345 178.533L350.899 177.035C348.453 173.438 346.993 166.739 346.993 156.286H344.993ZM349.345 178.533L347.858 180.126C351.454 184.882 356.973 187.01 363.937 187.01V184.629V182.248C357.588 182.248 353.379 180.311 350.831 176.94L349.345 178.533ZM442.155 191.638L440.932 193.522L440.971 193.559L441.012 193.593L442.155 191.638ZM434.475 180.362L436.332 179.478L432.479 180.207L434.475 180.362ZM433.707 194.381V196.762H435.58L435.702 194.536L433.707 194.381ZM422.443 194.381H420.443V196.762H422.443V194.381ZM422.443 2.38096V0H420.443V2.38096H422.443ZM438.059 2.38096H440.059V0H438.059V2.38096ZM438.059 56.019H436.059L439.862 57.0493L438.059 56.019ZM447.019 44.7428L447.944 46.8538L447.958 46.8452L447.971 46.8364L447.019 44.7428ZM490.027 174.571L488.109 173.895L488.099 173.934L488.091 173.974L490.027 174.571ZM474.411 194.381L473.925 192.071L473.877 192.086L473.829 192.103L474.411 194.381ZM474.411 172.438L476.287 173.261L476.293 173.243L476.299 173.225L474.411 172.438ZM471.851 59.0667L470.357 60.6486L470.377 60.6755L470.397 60.7014L471.851 59.0667ZM442.667 176.4L441.058 177.815L441.088 177.862L441.119 177.908L442.667 176.4ZM460.075 196.514V194.133C452.213 194.133 446.728 192.525 443.297 189.684L442.155 191.638L441.012 193.593C445.432 197.252 451.894 198.895 460.075 198.895V196.514ZM442.155 191.638L443.378 189.754C439.825 186.486 437.531 183.048 436.332 179.478L434.475 180.362L432.618 181.246C434.149 185.803 436.975 189.882 440.932 193.522L442.155 191.638ZM434.475 180.362L432.479 180.207L431.711 194.226L433.707 194.381L435.702 194.536L436.47 180.517L434.475 180.362ZM433.707 194.381V192H422.443V194.381V196.762H433.707V194.381ZM422.443 194.381H424.443V2.38096H422.443H420.443V194.381H422.443ZM422.443 2.38096V4.76191H438.059V2.38096V0H422.443V2.38096ZM438.059 2.38096H436.059V56.019H438.059H440.059V2.38096H438.059ZM438.059 56.019L439.862 57.0493C441.736 52.3997 444.429 49.0371 447.944 46.8538L447.019 44.7428L446.093 42.6319C441.758 45.3247 438.477 49.4797 436.256 54.9888L438.059 56.019ZM447.019 44.7428L447.971 46.8364C451.696 44.4343 456.465 43.1619 462.379 43.1619V40.7809V38.4C456.004 38.4 450.533 39.7688 446.066 42.6493L447.019 44.7428ZM462.379 40.7809V43.1619C468.665 43.1619 473.821 44.3452 477.925 46.6L478.763 44.4381L479.601 42.2764C474.829 39.6547 469.063 38.4 462.379 38.4V40.7809ZM478.763 44.4381L477.925 46.6C481.919 48.795 484.917 52.344 486.945 57.3566L488.747 56.3238L490.549 55.2909C488.139 49.3321 484.481 44.9574 479.601 42.2764L478.763 44.4381ZM488.747 56.3238L486.945 57.3566C488.979 62.3833 490.075 69.5947 490.075 79.1809H492.075H494.075C494.075 69.2624 492.953 61.2357 490.549 55.2909L488.747 56.3238ZM492.075 79.1809H490.075V153.848H492.075H494.075V79.1809H492.075ZM492.075 153.848H490.075C490.075 162.043 489.401 168.704 488.109 173.895L490.027 174.571L491.945 175.248C493.383 169.467 494.075 162.312 494.075 153.848H492.075ZM490.027 174.571L488.091 173.974C486.959 179.176 485.213 183.156 482.935 186.048L484.395 187.676L485.855 189.305C488.697 185.695 490.707 180.938 491.963 175.169L490.027 174.571ZM484.395 187.676L482.935 186.048C480.671 188.923 477.699 190.948 473.925 192.071L474.411 194.381L474.897 196.691C479.315 195.375 482.999 192.931 485.855 189.305L484.395 187.676ZM474.411 194.381L473.829 192.103C470.147 193.437 465.577 194.133 460.075 194.133V196.514V198.895C465.837 198.895 470.823 198.17 474.993 196.659L474.411 194.381ZM457.259 183.105V185.486C462.19 185.486 466.295 184.654 469.417 182.796L468.523 180.667L467.629 178.537C465.289 179.93 461.885 180.724 457.259 180.724V183.105ZM468.523 180.667L469.417 182.796C472.665 180.864 474.943 177.609 476.287 173.261L474.411 172.438L472.535 171.615C471.491 174.988 469.843 177.219 467.629 178.537L468.523 180.667ZM474.411 172.438L476.299 173.225C477.601 168.797 478.203 162.904 478.203 155.676H476.203H474.203C474.203 162.67 473.611 167.952 472.523 171.652L474.411 172.438ZM476.203 155.676H478.203V79.7905H476.203H474.203V155.676H476.203ZM476.203 79.7905H478.203C478.203 69.5547 476.775 61.8059 473.305 57.4319L471.851 59.0667L470.397 60.7014C472.729 63.6416 474.203 69.7088 474.203 79.7905H476.203ZM471.851 59.0667L473.345 57.4847C470.039 53.0569 464.445 51.2 457.259 51.2V53.5809V55.9619C464.067 55.9619 468.201 57.7621 470.357 60.6486L471.851 59.0667ZM457.259 53.5809V51.2C449.838 51.2 444.108 53.4 440.82 58.5381L442.411 59.9809L444.001 61.424C446.174 58.0286 450.343 55.9619 457.259 55.9619V53.5809ZM442.411 59.9809L440.82 58.5381C437.718 63.3843 436.315 70.1778 436.315 78.5714H438.315H440.315C440.315 70.7112 441.642 65.1109 444.001 61.424L442.411 59.9809ZM438.315 78.5714H436.315V153.848H438.315H440.315V78.5714H438.315ZM438.315 153.848H436.315C436.315 164.367 437.77 172.519 441.058 177.815L442.667 176.4L444.275 174.985C441.76 170.935 440.315 164.052 440.315 153.848H438.315ZM442.667 176.4L441.119 177.908C444.698 183.116 450.239 185.486 457.259 185.486V183.105V180.724C450.967 180.724 446.779 178.624 444.215 174.892L442.667 176.4Z" fill="#102030"/>
</g>
</g>
<path fill-rule="evenodd" clip-rule="evenodd" d="M989.533 80.0007C990.332 79.9843 991.114 80.2554 991.751 80.7706C992.389 81.2857 992.846 82.0148 993.048 82.8407L1002.71 122.022L1007.89 112.346C1008.2 111.764 1008.65 111.28 1009.19 110.943C1009.73 110.607 1010.35 110.429 1010.98 110.429H1018.1C1019.05 110.429 1019.96 110.83 1020.62 111.543C1021.29 112.257 1021.67 113.224 1021.67 114.233C1021.67 115.242 1021.29 116.209 1020.62 116.922C1019.96 117.636 1019.05 118.036 1018.1 118.036H1013.05L1004.57 133.869C1004.22 134.524 1003.69 135.053 1003.06 135.388C1002.43 135.723 1001.72 135.849 1001.02 135.751C1000.31 135.652 999.657 135.334 999.126 134.835C998.596 134.337 998.216 133.681 998.035 132.951L989.913 100.007L980.019 148.013C979.851 148.829 979.436 149.563 978.838 150.102C978.24 150.641 977.493 150.955 976.712 150.996C975.93 151.036 975.158 150.801 974.514 150.326C973.871 149.851 973.391 149.163 973.15 148.368L962.501 113.218L959.413 118.721C959.097 119.286 958.649 119.753 958.112 120.077C957.576 120.402 956.97 120.572 956.354 120.572H949.229C948.284 120.572 947.378 120.171 946.71 119.458C946.042 118.745 945.667 117.777 945.667 116.768C945.667 115.76 946.042 114.792 946.71 114.079C947.378 113.366 948.284 112.965 949.229 112.965H954.335L960.425 102.132C960.777 101.506 961.29 101 961.904 100.677C962.517 100.354 963.205 100.226 963.885 100.309C964.565 100.392 965.208 100.682 965.737 101.145C966.267 101.607 966.66 102.223 966.871 102.918L975.886 132.677L986.127 82.9878C986.299 82.1541 986.728 81.4062 987.345 80.8644C987.963 80.3226 988.734 80.0184 989.533 80.0007Z" fill="#102030"/>
<path d="M863.348 25.2628L857.779 15.1337L852.399 5.32731C852.184 4.92653 851.862 4.59123 851.468 4.35739C851.074 4.12355 850.623 4 850.163 4C849.703 4 849.252 4.12355 848.858 4.35739C848.464 4.59123 848.142 4.92653 847.927 5.32731L842.547 15.1337L836.978 25.2628C836.766 25.6469 836.659 26.0785 836.667 26.5156C836.675 26.9527 836.798 27.3803 837.023 27.7567C837.248 28.1331 837.568 28.4455 837.952 28.6634C838.336 28.8813 838.771 28.9973 839.214 29H861.123C861.566 28.9985 862.001 28.8831 862.386 28.6652C862.77 28.4473 863.09 28.1344 863.315 27.7573C863.539 27.3802 863.661 26.9518 863.666 26.5144C863.672 26.077 863.563 25.6457 863.348 25.2628ZM848.792 12.4062C848.897 12.316 849.091 12.2709 849.372 12.2709H850.986C851.271 12.2709 851.461 12.3125 851.577 12.4062C851.693 12.4999 851.735 12.6561 851.724 12.8955L851.408 20.37C851.397 20.6094 851.334 20.7656 851.239 20.8488C851.144 20.9321 850.954 20.9842 850.669 20.9842H849.678C849.404 20.9842 849.214 20.9321 849.119 20.8488C849.024 20.7656 848.961 20.6094 848.95 20.37L848.644 12.8851C848.644 12.6561 848.686 12.4895 848.792 12.4062ZM851.861 23.6075C851.861 24.0933 851.756 24.4265 851.545 24.6069C851.334 24.7839 850.944 24.8776 850.385 24.8776H849.952C849.382 24.8776 849.003 24.7735 848.792 24.6069C848.581 24.4404 848.475 24.0864 848.475 23.6075V23.3056C848.475 22.8198 848.581 22.4867 848.792 22.3063C849.003 22.1293 849.382 22.046 849.952 22.046H850.374C850.944 22.046 851.323 22.1293 851.534 22.3063C851.745 22.4832 851.851 22.8268 851.851 23.3056L851.861 23.6075Z" fill="url(#paint0_linear_2041_31)" stroke="#EF4444" stroke-miterlimit="10"/>
<path d="M10.6667 136.373V27.8572C10.6667 24.9816 11.8074 22.2235 13.8386 20.188C15.8699 18.1525 18.6256 17.006 21.5012 17H216.863C218.289 16.9985 219.702 17.2783 221.019 17.8234C222.337 18.3685 223.535 19.1682 224.543 20.1767C225.552 21.1852 226.352 22.3826 226.897 23.7006C227.442 25.0185 227.722 26.431 227.72 27.8572V136.373H10.6667Z" fill="#66E1FF"/>
<path d="M178.868 17H21.5125C18.635 17.003 15.8763 18.1482 13.8427 20.184C11.809 22.2198 10.6667 24.9797 10.6667 27.8572V136.373H59.4957L178.868 17Z" fill="#C2F3FF"/>
<path d="M10.6667 136.373H227.697V158.076C227.694 160.951 226.551 163.708 224.517 165.741C222.484 167.775 219.727 168.918 216.851 168.921H21.5125C18.637 168.918 15.88 167.775 13.8467 165.741C11.8133 163.708 10.6697 160.951 10.6667 158.076V136.373Z" fill="white"/>
<path d="M88.1193 212.328L90.7286 208.141C98.4686 196.46 102.931 182.916 103.651 168.921H134.713C135.433 182.916 139.895 196.46 147.635 208.141L150.245 212.339L88.1193 212.328Z" fill="#E3E3E3" stroke="#191919" stroke-width="21.3333" stroke-linecap="round" stroke-linejoin="round"/>
<path d="M70.3529 212.339H168.022M10.6667 136.373H227.697M216.851 17C218.278 16.9985 219.69 17.2783 221.008 17.8234C222.326 18.3685 223.524 19.1682 224.532 20.1767C225.54 21.1852 226.34 22.3826 226.885 23.7006C227.43 25.0185 227.71 26.431 227.709 27.8572V158.076C227.709 160.955 226.565 163.717 224.529 165.753C222.493 167.789 219.731 168.933 216.851 168.933H21.5125C18.635 168.93 15.8763 167.785 13.8427 165.749C11.809 163.713 10.6667 160.953 10.6667 158.076V27.8572C10.6667 24.9816 11.8074 22.2235 13.8386 20.188C15.8699 18.1525 18.6256 17.006 21.5012 17H216.851Z" stroke="#191919" stroke-width="21.3333" stroke-linecap="round" stroke-linejoin="round"/>
<path fill-rule="evenodd" clip-rule="evenodd" d="M125.07 45.0006C125.806 44.9856 126.526 45.2339 127.113 45.7055C127.7 46.1771 128.121 46.8446 128.307 47.6006L137.206 83.4713L141.975 74.6127C142.262 74.0798 142.676 73.6367 143.176 73.3285C143.677 73.0203 144.245 72.8579 144.823 72.8577H151.385C152.256 72.8577 153.09 73.2246 153.706 73.8776C154.321 74.5306 154.667 75.4163 154.667 76.3398C154.667 77.2634 154.321 78.1491 153.706 78.8021C153.09 79.4551 152.256 79.822 151.385 79.822H146.726L138.921 94.3169C138.598 94.9165 138.114 95.4004 137.53 95.7071C136.947 96.0138 136.291 96.1294 135.645 96.0393C135 95.9493 134.395 95.6575 133.906 95.2011C133.417 94.7448 133.067 94.1445 132.901 93.4766L125.42 63.3167L116.307 107.266C116.152 108.013 115.77 108.685 115.219 109.178C114.669 109.672 113.98 109.959 113.261 109.996C112.541 110.033 111.83 109.817 111.237 109.383C110.644 108.948 110.202 108.318 109.98 107.591L100.172 75.4113L97.3279 80.4488C97.0365 80.9657 96.6237 81.3936 96.1299 81.6907C95.6361 81.9877 95.0781 82.1437 94.5104 82.1434H87.9479C87.0777 82.1434 86.2431 81.7765 85.6277 81.1235C85.0124 80.4705 84.6667 79.5848 84.6667 78.6613C84.6667 77.7377 85.0124 76.8521 85.6277 76.199C86.2431 75.546 87.0777 75.1791 87.9479 75.1791H92.651L98.2598 65.262C98.5838 64.6883 99.0566 64.2258 99.6218 63.9297C100.187 63.6336 100.82 63.5165 101.447 63.5924C102.073 63.6683 102.665 63.934 103.153 64.3577C103.641 64.7814 104.003 65.3452 104.197 65.9817L112.5 93.2259L121.933 47.7353C122.091 46.9721 122.486 46.2874 123.055 45.7914C123.624 45.2954 124.334 45.0168 125.07 45.0006Z" fill="#102030"/>
<defs>
<linearGradient id="paint0_linear_2041_31" x1="840.406" y1="9.18947" x2="854.17" y2="33.3525" gradientUnits="userSpaceOnUse">
<stop stop-color="#F87171"/>
<stop offset="0.5" stop-color="#F87171"/>
<stop offset="1" stop-color="#DC2626"/>
</linearGradient>
<clipPath id="clip0_2041_31">
<rect width="232" height="200" fill="white" transform="translate(262.667)"/>
</clipPath>
</defs>
</svg>
